SplineFontDB: 1.0
FontName: UbuntuTitleLight
FullName: UbuntuTitleLight
FamilyName: UbuntuTitleLight
Weight: Light
Copyright: Copyright (c) 2005 Canonical Ltd.\nmade by Andrew Fitzsimon ( andrew@fitzsimon.com.au ) \nreleased under the LGPL ( http://www.gnu.org/copyleft/lesser.html )\nlight (35) version - Paulo Silva - 20070520
Version: 002.000
ItalicAngle: 0
UnderlinePosition: -100
UnderlineWidth: 50
Ascent: 800
Descent: 200
Order2: 1
XUID: [1021 682 1097764676 9352583]
FSType: 0
OS2Version: 1
OS2_WeightWidthSlopeOnly: 0
OS2_UseTypoMetrics: 1
CreationTime: 1124425253
ModificationTime: 1181233716
PfmFamily: 17
TTFWeight: 400
TTFWidth: 5
LineGap: 88
VLineGap: 0
Panose: 2 0 5 3 0 0 0 0 0 0
OS2TypoAscent: 0
OS2TypoAOffset: 1
OS2TypoDescent: 0
OS2TypoDOffset: 1
OS2TypoLinegap: 0
OS2WinAscent: 0
OS2WinAOffset: 1
OS2WinDescent: 0
OS2WinDOffset: 1
HheadAscent: 0
HheadAOffset: 1
HheadDescent: 0
HheadDOffset: 1
OS2SubXSize: 648
OS2SubYSize: 696
OS2SubXOff: 0
OS2SubYOff: 138
OS2SupXSize: 648
OS2SupYSize: 696
OS2SupXOff: 0
OS2SupYOff: 476
OS2StrikeYSize: 48
OS2StrikeYPos: 256
OS2Vendor: 'PfEd'
ScriptLang: 1
 1 latn 1 dflt 
TableOrder: GPOS 1
	'kern'
TtfTable: cvt  4
!$MDh
EndTtf
TtfTable: maxp 32
!!*'"!+>k6!!<3$!!!!#!!!!"!!*'"!'gMaz
EndTtf
LangName: 1033 
LangName: 2057 "" "" "Ubuntu-Title" 
LangName: 3081 "" "" "Ubuntu-Title" 
Encoding: UnicodeFull
Compacted: 1
UnicodeInterp: none
NameList: Adobe Glyph List
DisplaySize: -48
AntiAlias: 1
FitToEm: 1
WinInfo: 99 9 9
BeginChars: 1114114 175
StartChar: exclam
Encoding: 33 33 4
Width: 331
GlyphClass: 2
Flags: W
HStem: 0 53.5352<147.084 179.051>
VStem: 136.493 53.5<10.7666 42.7727 206.14 657.094>
Fore
163.243 667.86 m 128,-1,1
 174.318 667.86 174.318 667.86 182.155 660.022 c 128,-1,2
 189.993 652.186 189.993 652.186 189.993 641.11 c 2,3,-1
 189.993 218.436 l 2,4,5
 189.993 207.36 189.993 207.36 182.155 199.523 c 128,-1,6
 174.318 191.686 174.318 191.686 163.243 191.686 c 128,-1,7
 152.169 191.686 152.169 191.686 144.331 199.523 c 128,-1,8
 136.493 207.36 136.493 207.36 136.493 218.436 c 2,9,-1
 136.493 641.11 l 2,10,11
 136.493 652.186 136.493 652.186 144.331 660.022 c 128,-1,0
 152.169 667.86 152.169 667.86 163.243 667.86 c 128,-1,1
189.817 26.75 m 128,-1,13
 189.817 15.6758 189.817 15.6758 181.979 7.83789 c 128,-1,14
 174.142 0 174.142 0 163.067 0 c 128,-1,15
 151.993 0 151.993 0 144.155 7.83789 c 128,-1,16
 136.317 15.6758 136.317 15.6758 136.317 26.75 c 128,-1,17
 136.317 37.8604 136.317 37.8604 144.155 45.6973 c 128,-1,18
 151.993 53.5352 151.993 53.5352 163.067 53.5352 c 128,-1,19
 174.142 53.5352 174.142 53.5352 181.979 45.6973 c 128,-1,12
 189.817 37.8604 189.817 37.8604 189.817 26.75 c 128,-1,13
EndSplineSet
EndChar
StartChar: quotedbl
Encoding: 34 34 5
Width: 409
GlyphClass: 2
Flags: W
VStem: 48.5762 53.5<422.881 608.851> 254.338 53.5<422.881 608.851>
Fore
75.3262 619.617 m 128,-1,1
 86.4004 619.617 86.4004 619.617 94.2383 611.779 c 128,-1,2
 102.076 603.941 102.076 603.941 102.076 592.867 c 2,3,-1
 102.076 435.177 l 2,4,5
 102.076 424.102 102.076 424.102 94.2383 416.265 c 128,-1,6
 86.4004 408.427 86.4004 408.427 75.3262 408.427 c 128,-1,7
 64.251 408.427 64.251 408.427 56.4141 416.265 c 128,-1,8
 48.5762 424.102 48.5762 424.102 48.5762 435.177 c 2,9,-1
 48.5762 592.867 l 2,10,11
 48.5762 603.941 48.5762 603.941 56.4141 611.779 c 128,-1,0
 64.251 619.617 64.251 619.617 75.3262 619.617 c 128,-1,1
281.088 619.617 m 128,-1,13
 292.162 619.617 292.162 619.617 300 611.779 c 128,-1,14
 307.838 603.941 307.838 603.941 307.838 592.867 c 2,15,-1
 307.838 435.177 l 2,16,17
 307.838 424.102 307.838 424.102 300 416.265 c 128,-1,18
 292.162 408.427 292.162 408.427 281.088 408.427 c 128,-1,19
 270.014 408.427 270.014 408.427 262.176 416.265 c 128,-1,20
 254.338 424.102 254.338 424.102 254.338 435.177 c 2,21,-1
 254.338 592.867 l 2,22,23
 254.338 603.941 254.338 603.941 262.176 611.779 c 128,-1,12
 270.014 619.617 270.014 619.617 281.088 619.617 c 128,-1,13
EndSplineSet
EndChar
StartChar: numbersign
Encoding: 35 35 6
Width: 739
GlyphClass: 2
Flags: W
HStem: -1 21G<211.528 222.603 457.212 468.287> 174.5 53.5<28.4892 190.315 243.815 436 489.5 649.014> 466.812 53.5<28.4892 190.315 243.815 436 489.5 649.014>
VStem: 190.315 53.5<13.4551 174.5 228 466.812 520.312 698.89> 436 53.5<13.4551 174.5 228 466.812 520.312 695.201>
Fore
217.065 709.656 m 128,-1,1
 228.141 709.656 228.141 709.656 235.978 701.818 c 128,-1,2
 243.815 693.98 243.815 693.98 243.815 682.906 c 2,3,-1
 243.815 520.312 l 1,4,-1
 436 520.312 l 1,5,-1
 436 682.906 l 2,6,7
 436 693.98 436 693.98 443.838 701.818 c 128,-1,8
 451.675 709.656 451.675 709.656 462.75 709.656 c 128,-1,9
 473.824 709.656 473.824 709.656 481.662 701.818 c 128,-1,10
 489.5 693.98 489.5 693.98 489.5 682.906 c 2,11,-1
 489.5 520.312 l 1,12,-1
 636.719 520.312 l 2,13,14
 647.793 520.312 647.793 520.312 655.631 512.475 c 128,-1,15
 663.469 504.637 663.469 504.637 663.469 493.562 c 128,-1,16
 663.469 482.488 663.469 482.488 655.631 474.65 c 128,-1,17
 647.793 466.812 647.793 466.812 636.719 466.812 c 2,18,-1
 489.5 466.812 l 1,19,-1
 489.5 228 l 1,20,-1
 636.719 228 l 2,21,22
 647.793 228 647.793 228 655.631 220.162 c 128,-1,23
 663.469 212.324 663.469 212.324 663.469 201.25 c 128,-1,24
 663.469 190.176 663.469 190.176 655.631 182.338 c 128,-1,25
 647.793 174.5 647.793 174.5 636.719 174.5 c 2,26,-1
 489.5 174.5 l 1,27,-1
 489.5 25.75 l 2,28,29
 489.5 14.6758 489.5 14.6758 481.662 6.83789 c 128,-1,30
 473.824 -1 473.824 -1 462.75 -1 c 128,-1,31
 451.675 -1 451.675 -1 443.838 6.83789 c 128,-1,32
 436 14.6758 436 14.6758 436 25.75 c 2,33,-1
 436 174.5 l 1,34,-1
 243.815 174.5 l 1,35,-1
 243.815 25.75 l 2,36,37
 243.815 14.6758 243.815 14.6758 235.978 6.83789 c 128,-1,38
 228.141 -1 228.141 -1 217.065 -1 c 128,-1,39
 205.991 -1 205.991 -1 198.153 6.83789 c 128,-1,40
 190.315 14.6758 190.315 14.6758 190.315 25.75 c 2,41,-1
 190.315 174.5 l 1,42,-1
 40.7842 174.5 l 2,43,44
 29.71 174.5 29.71 174.5 21.8721 182.338 c 128,-1,45
 14.0342 190.176 14.0342 190.176 14.0342 201.25 c 128,-1,46
 14.0342 212.324 14.0342 212.324 21.8721 220.162 c 128,-1,47
 29.71 228 29.71 228 40.7842 228 c 2,48,-1
 190.315 228 l 1,49,-1
 190.315 466.812 l 1,50,-1
 40.7842 466.812 l 2,51,52
 29.71 466.812 29.71 466.812 21.8721 474.65 c 128,-1,53
 14.0342 482.488 14.0342 482.488 14.0342 493.562 c 128,-1,54
 14.0342 504.637 14.0342 504.637 21.8721 512.475 c 128,-1,55
 29.71 520.312 29.71 520.312 40.7842 520.312 c 2,56,-1
 190.315 520.312 l 1,57,-1
 190.315 682.906 l 2,58,59
 190.315 693.98 190.315 693.98 198.153 701.818 c 128,-1,0
 205.991 709.656 205.991 709.656 217.065 709.656 c 128,-1,1
243.815 466.812 m 1,60,-1
 243.815 228 l 1,61,-1
 436 228 l 1,62,-1
 436 466.812 l 1,63,-1
 243.815 466.812 l 1,60,-1
EndSplineSet
EndChar
StartChar: dollar
Encoding: 36 36 7
Width: 554
GlyphClass: 2
Flags: W
HStem: 95.75 53.5<118.094 245.469 298.5 402.896> 320.531 53.4062<147.765 245.469 298.5 398.188> 543.219 52.5312<134.195 245.469 298.5 455.92>
VStem: 49.4688 53.0312<411.804 513.545> 245.094 53.5<6.17382 95.75 149.25 320.531 373.938 543.219 595.75 685.14> 441.469 53.0312<186.788 289.353>
Fore
271.844 695.906 m 128,-1,1
 282.918 695.906 282.918 695.906 290.756 688.068 c 128,-1,2
 298.594 680.23 298.594 680.23 298.594 669.156 c 0,3,4
 298.594 652.133 298.594 652.133 298.547 629.682 c 128,-1,5
 298.5 607.231 298.5 607.231 298.5 595.75 c 1,6,-1
 443.625 596.406 l 2,7,8
 454.699 596.406 454.699 596.406 462.537 588.568 c 128,-1,9
 470.375 580.73 470.375 580.73 470.375 569.656 c 128,-1,10
 470.375 558.582 470.375 558.582 462.537 550.744 c 128,-1,11
 454.699 542.906 454.699 542.906 443.625 542.906 c 0,12,13
 425.573 542.906 425.573 542.906 375.691 543.062 c 128,-1,14
 325.811 543.219 325.811 543.219 298.5 543.219 c 1,15,-1
 298.5 373.938 l 1,16,-1
 338.5 373.938 l 2,17,18
 416.062 373.938 416.062 373.938 455.281 336.989 c 128,-1,19
 494.5 300.04 494.5 300.04 494.5 237.75 c 128,-1,20
 494.5 175.51 494.5 175.51 451.458 135.63 c 128,-1,21
 408.415 95.75 408.415 95.75 338.5 95.75 c 2,22,-1
 298.5 95.75 l 1,23,-1
 298.594 18.4688 l 2,24,25
 298.594 7.39453 298.594 7.39453 290.756 -0.443359 c 128,-1,26
 282.918 -8.28125 282.918 -8.28125 271.844 -8.28125 c 128,-1,27
 260.769 -8.28125 260.769 -8.28125 252.932 -0.443359 c 128,-1,28
 245.094 7.39453 245.094 7.39453 245.094 18.4688 c 0,29,30
 245.094 28.2324 245.094 28.2324 245.281 53.4258 c 128,-1,31
 245.469 78.6191 245.469 78.6191 245.469 95.75 c 1,32,-1
 87.75 96.8438 l 2,33,34
 76.6748 96.8438 76.6748 96.8438 68.8379 104.682 c 128,-1,35
 61 112.52 61 112.52 61 123.594 c 128,-1,36
 61 134.668 61 134.668 68.8379 142.506 c 128,-1,37
 76.6758 150.344 76.6758 150.344 87.75 150.344 c 0,38,39
 92.8584 150.137 92.8584 150.137 245.469 149.25 c 1,40,-1
 245.469 320.531 l 1,41,-1
 203.469 320.531 l 2,42,43
 132.237 320.531 132.237 320.531 90.8535 355.106 c 128,-1,44
 49.4688 389.682 49.4688 389.682 49.4688 457.75 c 128,-1,45
 49.4688 525.681 49.4688 525.681 89.5742 560.716 c 128,-1,46
 129.68 595.75 129.68 595.75 198.672 595.75 c 2,47,-1
 245.469 595.75 l 1,48,-1
 245.094 669.156 l 2,49,50
 245.094 680.23 245.094 680.23 252.932 688.068 c 128,-1,0
 260.77 695.906 260.77 695.906 271.844 695.906 c 128,-1,1
182.87 543.219 m 2,51,52
 145.428 543.219 145.428 543.219 123.964 522.1 c 128,-1,53
 102.5 500.98 102.5 500.98 102.5 459.099 c 0,54,55
 102.5 422.718 102.5 422.718 125.132 398.328 c 128,-1,56
 147.765 373.938 147.765 373.938 186.5 373.938 c 2,57,-1
 245.469 373.938 l 1,58,-1
 245.469 543.219 l 1,59,-1
 182.87 543.219 l 2,51,52
298.5 320.531 m 1,60,-1
 298.5 149.25 l 1,61,-1
 357.469 149.25 l 2,62,63
 392.413 149.25 392.413 149.25 416.94 173.899 c 128,-1,64
 441.469 198.549 441.469 198.549 441.469 237.75 c 0,65,66
 441.469 277.444 441.469 277.444 419.828 298.987 c 128,-1,67
 398.188 320.531 398.188 320.531 357.469 320.531 c 2,68,-1
 298.5 320.531 l 1,60,-1
EndSplineSet
EndChar
StartChar: quotesingle
Encoding: 39 39 8
Width: 331
GlyphClass: 2
Flags: W
VStem: 135 53.5<422.881 608.851>
Fore
161.75 619.617 m 128,-1,1
 172.824 619.617 172.824 619.617 180.662 611.779 c 128,-1,2
 188.5 603.941 188.5 603.941 188.5 592.867 c 2,3,-1
 188.5 435.177 l 2,4,5
 188.5 424.102 188.5 424.102 180.662 416.265 c 128,-1,6
 172.824 408.427 172.824 408.427 161.75 408.427 c 128,-1,7
 150.676 408.427 150.676 408.427 142.838 416.265 c 128,-1,8
 135 424.102 135 424.102 135 435.177 c 2,9,-1
 135 592.867 l 2,10,11
 135 603.941 135 603.941 142.838 611.779 c 128,-1,0
 150.676 619.617 150.676 619.617 161.75 619.617 c 128,-1,1
EndSplineSet
EndChar
StartChar: parenleft
Encoding: 40 40 9
Width: 327
GlyphClass: 2
Flags: W
VStem: 46 53.3125<296.314 471.639>
Fore
189.75 700.812 m 4,0,1
 200.824 700.812 200.824 700.812 208.662 692.975 c 132,-1,2
 216.5 685.137 216.5 685.137 216.5 674.062 c 4,3,4
 216.5 661.791 216.5 661.791 207.125 653.75 c 5,5,6
 150.596 586.024 150.596 586.024 125.019 514.797 c 132,-1,7
 99.4414 443.568 99.4414 443.568 99.3125 350 c 4,8,9
 106.824 155.062 106.824 155.062 205.031 49.6875 c 5,10,11
 218.469 41.9434 218.469 41.9434 218.469 26.5 c 4,12,13
 218.469 15.4258 218.469 15.4258 210.631 7.58789 c 132,-1,14
 202.793 -0.25 202.793 -0.25 191.719 -0.25 c 4,15,16
 177.653 -0.25 177.653 -0.25 169.656 11.375 c 5,17,18
 133.705 46.1299 133.705 46.1299 109.262 88.2451 c 132,-1,19
 84.8193 130.36 84.8193 130.36 72.4395 178.743 c 132,-1,20
 60.0605 227.126 60.0605 227.126 54.8779 263.129 c 132,-1,21
 49.6953 299.132 49.6953 299.132 46 350 c 4,22,23
 46 486 46 486 100 596 c 4,24,25
 127.624 649.275 127.624 649.275 167.375 688.688 c 5,26,27
 175.327 700.812 175.327 700.812 189.75 700.812 c 4,0,1
EndSplineSet
EndChar
StartChar: parenright
Encoding: 41 41 10
Width: 279
GlyphClass: 2
Flags: W
VStem: 54.0498 172.469<26.5 350>
Fore
82.7686 700.812 m 0,0,1
 97.1914 700.812 97.1914 700.812 105.144 688.688 c 1,2,3
 144.895 649.275 144.895 649.275 172.519 596 c 0,4,5
 226.519 486 226.519 486 226.519 350 c 0,6,7
 222.823 299.132 222.823 299.132 217.641 263.129 c 128,-1,8
 212.458 227.126 212.458 227.126 200.079 178.743 c 128,-1,9
 187.699 130.36 187.699 130.36 163.257 88.2451 c 128,-1,10
 138.813 46.1299 138.813 46.1299 102.862 11.375 c 1,11,12
 94.8652 -0.25 94.8652 -0.25 80.7998 -0.25 c 0,13,14
 69.7256 -0.25 69.7256 -0.25 61.8877 7.58789 c 128,-1,15
 54.0498 15.4258 54.0498 15.4258 54.0498 26.5 c 0,16,17
 54.0498 41.9434 54.0498 41.9434 67.4873 49.6875 c 1,18,19
 165.694 155.062 165.694 155.062 173.206 350 c 0,20,21
 173.077 443.568 173.077 443.568 147.5 514.797 c 128,-1,22
 121.923 586.024 121.923 586.024 65.3936 653.75 c 1,23,24
 56.0186 661.791 56.0186 661.791 56.0186 674.062 c 0,25,26
 56.0186 685.137 56.0186 685.137 63.8564 692.975 c 128,-1,27
 71.6943 700.812 71.6943 700.812 82.7686 700.812 c 0,0,1
EndSplineSet
EndChar
StartChar: asterisk
Encoding: 42 42 11
Width: 477
GlyphClass: 2
Flags: W
HStem: 567 53.5<56.1426 222.344 315 481.232>
Fore
167.844 793.938 m 0,0,1
 183.759 794.349 183.759 794.349 191.719 780.562 c 2,2,-1
 268.688 647.25 l 1,3,-1
 345.656 780.562 l 2,4,5
 353.183 793.597 353.183 793.597 368.25 793.938 c 0,6,7
 375.675 794.104 375.675 794.104 382.188 790.344 c 0,8,9
 391.777 784.807 391.777 784.807 394.642 774.105 c 128,-1,10
 397.507 763.403 397.507 763.403 391.969 753.812 c 2,11,-1
 315 620.5 l 1,12,-1
 468.938 620.5 l 2,13,14
 480.012 620.5 480.012 620.5 487.85 612.662 c 128,-1,15
 495.688 604.824 495.688 604.824 495.688 593.75 c 128,-1,16
 495.688 582.676 495.688 582.676 487.85 574.838 c 128,-1,17
 480.012 567 480.012 567 468.938 567 c 2,18,-1
 315 567 l 1,19,-1
 391.969 433.688 l 2,20,21
 397.507 424.097 397.507 424.097 394.642 413.395 c 128,-1,22
 391.777 402.693 391.777 402.693 382.188 397.156 c 128,-1,23
 372.598 391.618 372.598 391.618 361.896 394.482 c 128,-1,24
 351.192 397.348 351.192 397.348 345.656 406.938 c 2,25,-1
 268.688 540.25 l 1,26,-1
 191.719 406.938 l 2,27,28
 186.183 397.348 186.183 397.348 175.479 394.482 c 128,-1,29
 164.777 391.618 164.777 391.618 155.188 397.156 c 128,-1,30
 145.594 402.695 145.594 402.695 142.717 413.395 c 128,-1,31
 139.841 424.095 139.841 424.095 145.375 433.688 c 2,32,-1
 222.344 567 l 1,33,-1
 68.4375 567 l 2,34,35
 57.3633 567 57.3633 567 49.5254 574.838 c 128,-1,36
 41.6875 582.676 41.6875 582.676 41.6875 593.75 c 128,-1,37
 41.6875 604.824 41.6875 604.824 49.5254 612.662 c 128,-1,38
 57.3633 620.5 57.3633 620.5 68.4375 620.5 c 2,39,-1
 222.344 620.5 l 1,40,-1
 145.375 753.812 l 2,41,42
 139.841 763.405 139.841 763.405 142.717 774.105 c 128,-1,43
 145.594 784.805 145.594 784.805 155.188 790.344 c 0,44,45
 161.109 793.764 161.109 793.764 167.844 793.938 c 0,0,1
EndSplineSet
EndChar
StartChar: plus
Encoding: 43 43 12
Width: 539
GlyphClass: 2
Flags: W
HStem: 363.812 53.5<82.3296 292.5 346 556.17>
VStem: 292.5 53.5<153.611 363.812 417.312 631.171>
Fore
319.25 641.938 m 128,-1,1
 330.325 641.938 330.325 641.938 338.162 634.1 c 128,-1,2
 346 626.262 346 626.262 346 615.188 c 2,3,-1
 346 417.312 l 1,4,-1
 543.875 417.312 l 2,5,6
 554.95 417.312 554.95 417.312 562.787 409.475 c 128,-1,7
 570.625 401.637 570.625 401.637 570.625 390.562 c 128,-1,8
 570.625 379.488 570.625 379.488 562.787 371.65 c 128,-1,9
 554.95 363.812 554.95 363.812 543.875 363.812 c 2,10,-1
 346 363.812 l 1,11,-1
 346 165.906 l 2,12,13
 346 154.832 346 154.832 338.162 146.994 c 128,-1,14
 330.325 139.156 330.325 139.156 319.25 139.156 c 128,-1,15
 308.175 139.156 308.175 139.156 300.338 146.994 c 128,-1,16
 292.5 154.832 292.5 154.832 292.5 165.906 c 2,17,-1
 292.5 363.812 l 1,18,-1
 94.625 363.812 l 2,19,20
 83.5498 363.812 83.5498 363.812 75.7129 371.65 c 128,-1,21
 67.875 379.488 67.875 379.488 67.875 390.562 c 128,-1,22
 67.875 401.637 67.875 401.637 75.7129 409.475 c 128,-1,23
 83.5498 417.312 83.5498 417.312 94.625 417.312 c 2,24,-1
 292.5 417.312 l 1,25,-1
 292.5 615.188 l 2,26,27
 292.5 626.262 292.5 626.262 300.338 634.1 c 128,-1,0
 308.176 641.938 308.176 641.938 319.25 641.938 c 128,-1,1
EndSplineSet
EndChar
StartChar: comma
Encoding: 44 44 13
Width: 177
GlyphClass: 2
Flags: W
VStem: 41 53.5<13.4121 199.381>
Fore
67.75 210.147 m 128,-1,1
 78.8252 210.147 78.8252 210.147 86.6621 202.31 c 128,-1,2
 94.5 194.472 94.5 194.472 94.5 183.397 c 2,3,-1
 94.5 25.707 l 2,4,5
 94.5 14.6328 94.5 14.6328 86.6621 6.79492 c 128,-1,6
 78.8252 -1.04297 78.8252 -1.04297 67.75 -1.04297 c 128,-1,7
 56.6758 -1.04297 56.6758 -1.04297 44.5332 11.0996 c 0,8,9
 41 23.2422 41 23.2422 41 25.707 c 2,10,-1
 41 183.397 l 2,11,12
 41 194.472 41 194.472 48.8379 202.31 c 128,-1,0
 56.6758 210.147 56.6758 210.147 67.75 210.147 c 128,-1,1
EndSplineSet
EndChar
StartChar: hyphen
Encoding: 45 45 14
Width: 303
GlyphClass: 2
Flags: W
HStem: 212.321 53.5<38.3896 317.383>
Fore
27.623 239.071 m 128,-1,1
 27.623 250.146 27.623 250.146 35.4609 257.983 c 128,-1,2
 43.2988 265.821 43.2988 265.821 54.373 265.821 c 2,3,-1
 305.088 265.821 l 2,4,5
 316.162 265.821 316.162 265.821 324 257.983 c 128,-1,6
 331.838 250.146 331.838 250.146 331.838 239.071 c 128,-1,7
 331.838 227.996 331.838 227.996 324 220.159 c 128,-1,8
 316.162 212.321 316.162 212.321 305.088 212.321 c 2,9,-1
 54.373 212.321 l 2,10,11
 43.2988 212.321 43.2988 212.321 35.4609 220.159 c 128,-1,0
 27.623 227.996 27.623 227.996 27.623 239.071 c 128,-1,1
EndSplineSet
EndChar
StartChar: period
Encoding: 46 46 15
Width: 143
GlyphClass: 2
Flags: W
HStem: 0 53.5352<45.7666 77.7334>
VStem: 35 53.5<10.7666 42.7727>
Fore
88.5 26.75 m 128,-1,1
 88.5 15.6758 88.5 15.6758 80.6621 7.83789 c 128,-1,2
 72.8242 0 72.8242 0 61.75 0 c 128,-1,3
 50.6758 0 50.6758 0 42.8379 7.83789 c 128,-1,4
 35 15.6758 35 15.6758 35 26.75 c 128,-1,5
 35 37.8604 35 37.8604 42.8379 45.6973 c 128,-1,6
 50.6758 53.5352 50.6758 53.5352 61.75 53.5352 c 128,-1,7
 72.8242 53.5352 72.8242 53.5352 80.6621 45.6973 c 128,-1,0
 88.5 37.8604 88.5 37.8604 88.5 26.75 c 128,-1,1
EndSplineSet
EndChar
StartChar: slash
Encoding: 47 47 16
Width: 648
GlyphClass: 2
Flags: W
HStem: 0 21G<82.3374 91.1865>
Fore
570.75 698.031 m 4,0,1
 581.823 698.031 581.823 698.031 589.661 690.193 c 132,-1,2
 597.499 682.355 597.499 682.355 597.5 671.281 c 4,3,4
 597.5 664.739 597.5 664.739 594.5 658.969 c 5,5,-1
 116.968 21.25 l 6,6,7
 112.234 15.5713 112.234 15.5713 108.659 10.8496 c 132,-1,8
 105.083 6.12695 105.083 6.12695 99.791 3.06348 c 132,-1,9
 94.499 0 94.499 0 87.874 0 c 4,10,11
 76.8008 0 76.8008 0 68.9619 7.83789 c 132,-1,12
 61.124 15.6758 61.124 15.6758 61.124 26.75 c 4,13,14
 61.124 34.2451 61.124 34.2451 64.9678 40.5938 c 4,15,16
 66.1426 42.5938 66.1426 42.5938 68.374 45.0625 c 6,17,-1
 547.031 683.594 l 5,18,19
 554.54 698.031 554.54 698.031 570.75 698.031 c 4,0,1
EndSplineSet
EndChar
StartChar: zero
Encoding: 48 48 17
Width: 575
GlyphClass: 2
Flags: W
HStem: -0.5625 54.5273<168.153 408.375> 643.157 53.2803<171.187 407.821>
VStem: 48 53.2188<157.369 542.375> 472 53.2188<148.693 545.407>
Fore
286.875 696.438 m 0,0,1
 407.152 696.438 407.152 696.438 466.186 611.147 c 128,-1,2
 525.219 525.858 525.219 525.858 525.219 346 c 0,3,4
 525.219 -0.5625 525.219 -0.5625 285.344 -0.5625 c 0,5,6
 163.496 -0.5625 163.496 -0.5625 105.748 83.2695 c 128,-1,7
 48 167.102 48 167.102 48 348 c 0,8,9
 48 522.637 48 522.637 105.656 609.537 c 128,-1,10
 163.313 696.438 163.313 696.438 286.875 696.438 c 0,0,1
287 643.157 m 0,11,12
 197.913 643.157 197.913 643.157 149.566 570.107 c 128,-1,13
 101.219 497.058 101.219 497.058 101.219 346 c 0,14,15
 101.219 200.899 101.219 200.899 148.266 127.433 c 128,-1,16
 195.312 53.9648 195.312 53.9648 285.844 53.9648 c 0,17,18
 380.099 53.9648 380.099 53.9648 426.049 124.096 c 128,-1,19
 472 194.226 472 194.226 472 346 c 0,20,21
 472 499.39 472 499.39 425.97 571.273 c 128,-1,22
 379.939 643.157 379.939 643.157 287 643.157 c 0,11,12
EndSplineSet
EndChar
StartChar: one
Encoding: 49 49 18
Width: 189
GlyphClass: 2
Flags: W
HStem: 642.921 53.5<10.7041 90>
VStem: 90 53.625<11.0166 643.265>
Fore
26.6875 696.421 m 0,0,1
 35.5039 696.421 35.5039 696.421 58.3418 696.155 c 128,-1,2
 81.1797 695.89 81.1797 695.89 88.9053 695.89 c 0,3,4
 143.625 695.89 143.625 695.89 143.625 642.858 c 2,5,-1
 143.625 56 l 2,6,7
 143.625 46.3418 143.625 46.3418 141.062 38.125 c 1,8,9
 143.5 32.8086 143.5 32.8086 143.5 27 c 0,10,11
 143.5 15.9258 143.5 15.9258 135.662 8.08789 c 128,-1,12
 127.825 0.25 127.825 0.25 116.75 0.25 c 128,-1,13
 105.675 0.25 105.675 0.25 97.8379 8.08789 c 128,-1,14
 90 15.9258 90 15.9258 90 27 c 0,15,16
 90 32.167 90 32.167 91.875 36.875 c 1,17,18
 89.3486 45.5781 89.3486 45.5781 90 56 c 2,19,-1
 90 643.265 l 1,20,-1
 26.6875 642.921 l 2,21,22
 15.6123 642.921 15.6123 642.921 7.77539 650.759 c 128,-1,23
 -0.0625 658.597 -0.0625 658.597 -0.0625 669.671 c 128,-1,24
 -0.0625 680.746 -0.0625 680.746 7.77539 688.583 c 128,-1,25
 15.6133 696.421 15.6133 696.421 26.6875 696.421 c 0,0,1
EndSplineSet
EndChar
StartChar: two
Encoding: 50 50 19
Width: 509
GlyphClass: 2
Flags: W
HStem: 4 54<52.3763 486.884> 276.812 54.1875<189.316 295.717> 646.906 53.0938<116.842 325.563>
VStem: 50.9912 53.1562<58 226.786 552.642 608.421> 414.991 53.1562<399.741 556.537>
Fore
202.991 700 m 2,0,-1
 264.147 700 l 2,1,2
 325.563 700 325.563 700 365.263 687.239 c 128,-1,3
 404.962 674.478 404.962 674.478 427.742 645.226 c 128,-1,4
 450.522 615.974 450.522 615.974 459.335 575.265 c 128,-1,5
 468.147 534.557 468.147 534.557 468.147 472 c 0,6,7
 468.147 416.416 468.147 416.416 450.108 377.537 c 128,-1,8
 432.069 338.657 432.069 338.657 397.251 317.077 c 128,-1,9
 362.433 295.497 362.433 295.497 318.553 286.155 c 128,-1,10
 274.673 276.812 274.673 276.812 216.147 276.812 c 0,11,12
 155.853 274.537 155.853 274.537 130 244.312 c 128,-1,13
 104.147 214.089 104.147 214.089 104.147 158 c 2,14,-1
 104.147 58 l 1,15,16
 163.312 58 163.312 58 284.796 58.2344 c 128,-1,17
 406.278 58.4688 406.278 58.4688 441.366 58.4688 c 0,18,19
 452.44 58.4688 452.44 58.4688 460.278 50.6309 c 128,-1,20
 468.116 42.793 468.116 42.793 468.116 31.7188 c 128,-1,21
 468.116 20.6445 468.116 20.6445 460.278 12.8066 c 128,-1,22
 452.44 4.96875 452.44 4.96875 441.366 4.96875 c 0,23,24
 392.597 4.96875 392.597 4.96875 274.962 4.48438 c 128,-1,25
 157.327 4 157.327 4 104.991 4 c 0,26,27
 50.9912 4 50.9912 4 50.9912 60 c 2,28,-1
 50.9912 158 l 2,29,30
 50.9912 210.912 50.9912 210.912 65.792 245.743 c 128,-1,31
 80.5928 280.573 80.5928 280.573 111.597 298.855 c 128,-1,32
 142.601 317.137 142.601 317.137 180.742 324.068 c 128,-1,33
 218.883 331 218.883 331 274.991 331 c 0,34,35
 337.755 331 337.755 331 375.751 370.531 c 128,-1,36
 413.745 410.062 413.745 410.062 414.991 472 c 0,37,38
 414.991 646.906 414.991 646.906 292.21 646.906 c 2,39,-1
 144.147 646.906 l 2,40,41
 123.144 646.906 123.144 646.906 113.283 621.149 c 128,-1,42
 103.423 595.394 103.423 595.394 103.866 568.625 c 0,43,44
 103.866 557.551 103.866 557.551 96.0283 549.713 c 128,-1,45
 88.1904 541.875 88.1904 541.875 77.1162 541.875 c 128,-1,46
 66.042 541.875 66.042 541.875 58.2041 549.713 c 128,-1,47
 50.3662 557.551 50.3662 557.551 50.3662 568.625 c 0,48,49
 50.3662 638.639 50.3662 638.639 88.7959 669.319 c 128,-1,50
 127.226 700 127.226 700 202.991 700 c 2,0,-1
EndSplineSet
EndChar
StartChar: three
Encoding: 51 51 20
Width: 509
GlyphClass: 2
Flags: W
HStem: 0 54.3438<144.561 345.032> 317.406 54.6562<227.36 373.665> 642.156 53.8438<160.129 337.507>
VStem: 40 53.5<547.329 611.23> 407.969 52.1875<126.924 271.868 440.249 549.322>
Fore
219.969 696 m 2,0,-1
 258.156 696 l 2,1,2
 353.125 696 353.125 696 406.646 631.172 c 128,-1,3
 460.167 566.345 460.167 566.345 460.156 468 c 0,4,5
 458.621 426.263 458.621 426.263 450.795 399.067 c 128,-1,6
 442.968 371.872 442.968 371.872 420.156 346 c 1,7,8
 443.948 318.991 443.948 318.991 451.872 292.543 c 128,-1,9
 459.797 266.096 459.797 266.096 460.156 224 c 0,10,11
 460.156 124.085 460.156 124.085 405.084 62.043 c 128,-1,12
 350.011 0 350.011 0 258.156 0 c 2,13,-1
 192.094 0 l 2,14,15
 132.31 0 132.31 0 86.0137 34.8223 c 128,-1,16
 39.7188 69.6445 39.7188 69.6445 39.7188 129.312 c 0,17,18
 39.7188 140.387 39.7188 140.387 47.5566 148.225 c 128,-1,19
 55.3945 156.062 55.3945 156.062 66.4688 156.062 c 0,20,21
 84.6055 153.959 84.6055 153.959 90.3125 141.594 c 1,22,23
 90.3125 115.381 90.3125 115.381 117.437 85.3936 c 128,-1,24
 144.561 55.4062 144.561 55.4062 192.344 55.4062 c 2,25,-1
 272.438 54.3438 l 2,26,27
 328.279 54.3438 328.279 54.3438 368.124 101.835 c 128,-1,28
 407.969 149.326 407.969 149.326 407.969 224 c 0,29,30
 406.994 260.821 406.994 260.821 393.188 289.114 c 128,-1,31
 379.383 317.406 379.383 317.406 358.75 317.406 c 0,32,33
 357.76 317.407 357.76 317.407 300.972 317.721 c 128,-1,34
 244.184 318.035 244.184 318.035 243.344 317.5 c 1,35,36
 232.27 317.5 232.27 317.5 224.432 325.338 c 128,-1,37
 216.594 333.176 216.594 333.176 216.594 344.25 c 128,-1,38
 216.594 355.324 216.594 355.324 224.432 363.162 c 128,-1,39
 232.27 371 232.27 371 243.344 371 c 0,40,41
 261.938 370.32 261.938 370.32 296.15 371.224 c 128,-1,42
 330.363 372.126 330.363 372.126 342.812 372.062 c 0,43,44
 366.545 372.062 366.545 372.062 387.257 409.357 c 128,-1,45
 407.969 446.653 407.969 446.653 407.969 468 c 0,46,47
 407.969 530.556 407.969 530.556 372.738 585.356 c 128,-1,48
 337.507 640.156 337.507 640.156 295.875 640.156 c 2,49,-1
 219.969 642.156 l 2,50,51
 173.938 642.156 173.938 642.156 133.719 621.164 c 128,-1,52
 93.5 600.172 93.5 600.172 93.5 563.312 c 0,53,54
 93.5 552.238 93.5 552.238 85.6621 544.4 c 128,-1,55
 77.8242 536.562 77.8242 536.562 66.75 536.562 c 0,56,57
 55.4316 536.562 55.4316 536.562 47.7158 543.872 c 128,-1,58
 40 551.182 40 551.182 40 562.832 c 0,59,60
 40 627.094 40 627.094 86.9951 661.547 c 128,-1,61
 133.99 696 133.99 696 219.969 696 c 2,0,-1
EndSplineSet
EndChar
StartChar: four
Encoding: 52 52 21
Width: 547
GlyphClass: 2
Flags: W
HStem: 155.375 53.4375<107.5 362.406 415.594 496.01>
VStem: 362.406 53.1875<14.9541 155.375 208.812 586.906>
Fore
388.969 700.688 m 0,0,1
 399.866 700.688 399.866 700.688 407.661 693.07 c 128,-1,2
 415.456 685.452 415.456 685.452 415.719 674.594 c 1,3,-1
 415.594 208.812 l 1,4,-1
 481.844 208.812 l 2,5,6
 482.771 208.875 482.771 208.875 483.688 208.875 c 0,7,8
 494.762 208.875 494.762 208.875 502.6 201.037 c 128,-1,9
 510.438 193.199 510.438 193.199 510.438 182.125 c 0,10,11
 510.438 171.314 510.438 171.314 502.926 163.553 c 128,-1,12
 495.414 155.791 495.414 155.791 484.656 155.406 c 1,13,-1
 415.594 155.375 l 1,14,-1
 415.531 34.125 l 2,15,16
 415.719 32.54 415.719 32.54 415.719 30.9375 c 0,17,18
 415.719 19.8633 415.719 19.8633 407.881 12.0254 c 128,-1,19
 400.043 4.1875 400.043 4.1875 388.969 4.1875 c 128,-1,20
 377.895 4.1875 377.895 4.1875 370.057 12.0254 c 128,-1,21
 362.219 19.8633 362.219 19.8633 362.219 30.9375 c 0,22,23
 362.219 32.54 362.219 32.54 362.406 34.125 c 2,24,-1
 362.406 155.375 l 1,25,-1
 58.8438 155.406 l 2,26,27
 58.2363 155.375 58.2363 155.375 57.4688 155.375 c 0,28,29
 46.3945 155.375 46.3945 155.375 38.5566 163.213 c 128,-1,30
 30.7188 171.051 30.7188 171.051 30.7188 182.125 c 0,31,32
 30.7188 191.884 30.7188 191.884 37 199.344 c 2,33,-1
 365.438 686.688 l 2,34,35
 365.463 686.733 365.463 686.733 365.508 686.812 c 0,36,37
 366.639 688.843 366.639 688.843 368.094 690.656 c 2,38,-1
 369.188 692.281 l 1,39,40
 377.336 700.688 377.336 700.688 388.969 700.688 c 0,0,1
362.375 586.906 m 1,41,-1
 107.5 208.844 l 1,42,-1
 362.406 208.812 l 1,43,-1
 362.375 586.906 l 1,41,-1
EndSplineSet
EndChar
StartChar: five
Encoding: 53 53 22
Width: 515
GlyphClass: 2
Flags: W
HStem: -1.34375 52.625<184.341 346.182> 369 53.3125<107.5 318.713> 642.312 53.5<79.1982 463.64>
VStem: 53.3125 54.1875<422.312 642.094> 417.312 56.1875<155.51 310.783>
Fore
101.312 696 m 2,0,-1
 447.656 695.812 l 2,1,2
 458.73 695.812 458.73 695.812 466.568 687.975 c 128,-1,3
 474.406 680.137 474.406 680.137 474.406 669.062 c 0,4,5
 474.406 657.348 474.406 657.348 467.546 649.83 c 128,-1,6
 460.686 642.312 460.686 642.312 447.656 642.312 c 0,7,8
 387.23 642.312 387.23 642.312 276.686 642.203 c 128,-1,9
 166.141 642.094 166.141 642.094 107.5 642.094 c 1,10,-1
 107.5 422.312 l 1,11,-1
 223.5 422.312 l 2,12,13
 336.111 424.916 336.111 424.916 404.806 374.192 c 128,-1,14
 473.5 323.469 473.5 323.469 473.5 224 c 0,15,16
 473.5 120.67 473.5 120.67 409.475 60.3467 c 128,-1,17
 345.449 0.0234375 345.449 0.0234375 240.625 -1.34375 c 0,18,19
 150.878 -1.34375 150.878 -1.34375 102.08 32.3701 c 128,-1,20
 53.2812 66.083 53.2812 66.083 53.2812 133.875 c 0,21,22
 53.2812 144.949 53.2812 144.949 61.1191 152.787 c 128,-1,23
 68.957 160.625 68.957 160.625 80.0312 160.625 c 128,-1,24
 91.1055 160.625 91.1055 160.625 98.9434 152.787 c 128,-1,25
 106.781 144.949 106.781 144.949 106.781 133.875 c 0,26,27
 106.076 108.671 106.076 108.671 119.034 90.9004 c 128,-1,28
 131.992 73.1299 131.992 73.1299 153.62 64.9717 c 128,-1,29
 175.247 56.8135 175.247 56.8135 196.359 53.6816 c 128,-1,30
 217.472 50.5498 217.472 50.5498 239.281 51.2812 c 0,31,32
 321.513 51.2812 321.513 51.2812 367.306 100.64 c 128,-1,33
 413.099 149.998 413.099 149.998 417.312 224 c 0,34,35
 417.312 290.756 417.312 290.756 368.013 329.878 c 128,-1,36
 318.713 369 318.713 369 223.5 369 c 2,37,-1
 83.5439 369 l 2,38,39
 67.1055 369 67.1055 369 60.209 377.543 c 128,-1,40
 53.3125 386.087 53.3125 386.087 53.3125 405.778 c 2,41,-1
 53.3125 646 l 2,42,43
 53.3125 670.337 53.3125 670.337 66.2559 683.169 c 128,-1,44
 79.1982 696 79.1982 696 101.312 696 c 2,0,-1
EndSplineSet
EndChar
StartChar: six
Encoding: 54 54 23
Width: 493
GlyphClass: 2
Flags: W
HStem: 0.09375 53.4062<123.517 336.464> 315.312 52.5312<169.101 337.141> 641.938 54.8125<128.843 338.175>
VStem: 51.6562 53.3438<111.802 260.89 311.021 629.025> 394.438 53.5<107.435 263.845 474.142 581.201>
Fore
247.031 696.75 m 0,0,1
 348.346 696.75 348.346 696.75 398.81 643.049 c 128,-1,2
 449.272 589.347 449.272 589.347 447.938 490.125 c 0,3,4
 447.938 479.051 447.938 479.051 440.1 471.213 c 128,-1,5
 432.262 463.375 432.262 463.375 421.188 463.375 c 128,-1,6
 410.113 463.375 410.113 463.375 402.275 471.213 c 128,-1,7
 394.438 479.051 394.438 479.051 394.438 490.125 c 0,8,9
 395.996 560.184 395.996 560.184 356.565 600.204 c 128,-1,10
 317.135 640.225 317.135 640.225 247 641.938 c 0,11,12
 105 641.938 105 641.938 105 492 c 2,13,-1
 105 311.021 l 1,14,15
 146.721 367.844 146.721 367.844 249.656 367.844 c 0,16,17
 345.275 367.844 345.275 367.844 396.138 321.834 c 128,-1,18
 447 275.824 447 275.824 447 186.281 c 0,19,20
 447 97.1621 447 97.1621 396.285 48.6279 c 128,-1,21
 345.571 0.09375 345.571 0.09375 245.188 0.09375 c 0,22,23
 151.595 0.09375 151.595 0.09375 101.625 55.9482 c 128,-1,24
 51.6562 111.802 51.6562 111.802 51.6562 224 c 2,25,-1
 51.6562 512 l 2,26,27
 51.6562 602.02 51.6562 602.02 103.887 649.385 c 128,-1,28
 156.117 696.75 156.117 696.75 247.031 696.75 c 0,0,1
250.531 315.312 m 0,29,30
 187.893 315.312 187.893 315.312 146.446 284.046 c 128,-1,31
 105 252.779 105 252.779 105 225.743 c 0,32,33
 105 53.5 105 53.5 246.406 53.5 c 0,34,35
 315.682 53.5 315.682 53.5 353.669 89.6641 c 128,-1,36
 391.656 125.829 391.656 125.829 391.656 187.144 c 0,37,38
 391.656 246.145 391.656 246.145 354.405 280.729 c 128,-1,39
 317.154 315.312 317.154 315.312 250.531 315.312 c 0,29,30
EndSplineSet
EndChar
StartChar: seven
Encoding: 55 55 24
Width: 535
GlyphClass: 2
Flags: W
HStem: 639.312 53.5938<45.0486 464.373>
Fore
60.75 692.906 m 4,0,1
 118.233 692.906 118.233 692.906 308 692.781 c 0,2,3
 512.362 692.647 512.362 692.647 512.435 692.656 c 0,4,5
 514.326 692.906 514.326 692.906 515.968 692.906 c 0,6,7
 527.04 692.906 527.04 692.906 534.878 685.068 c 128,-1,8
 542.716 677.23 542.716 677.23 542.718 666.156 c 0,9,10
 542.715 658.985 542.715 658.985 539.154 652.812 c 1,11,-1
 539.404 652.625 l 1,12,-1
 81.623 10.8438 l 2,13,14
 80.1895 8.27539 80.1895 8.27539 78.2178 6.0625 c 2,15,-1
 77.7793 5.4375 l 1,16,17
 69.7803 -2.90625 69.7803 -2.90625 58.248 -2.90625 c 0,18,19
 47.1729 -2.90625 47.1729 -2.90625 39.3359 4.93164 c 128,-1,20
 31.498 12.7695 31.498 12.7695 31.498 23.8438 c 0,21,22
 31.498 31.666 31.498 31.666 35.748 38.2812 c 0,23,24
 36.3556 39.2262 36.3556 39.2262 36.8408 39.8438 c 2,25,-1
 37.1846 40.2812 l 1,26,-1
 37.623 40.875 l 1,27,-1
 464.373 639.688 l 1,28,-1
 60.125 639.312 l 6,29,30
 49.6025 639.303 49.6025 639.303 41.6279 647.453 c 4,31,32
 34 655.25 34 655.25 34 666.156 c 132,-1,33
 33.999 677.23 33.999 677.23 41.8369 685.068 c 132,-1,34
 49.6748 692.906 49.6748 692.906 60.75 692.906 c 4,0,1
EndSplineSet
EndChar
StartChar: eight
Encoding: 56 56 25
Width: 543
GlyphClass: 2
Flags: W
HStem: 0.90625 54.1934<119.703 377.581> 316.169 54.0049<175.887 351.649> 649.309 51.6289<55.6348 374.829>
VStem: 48.5 53.0625<70.9926 257.066> 52.5 53.0625<419.43 601.285> 438.5 51.0625<435.842 593.592> 440.5 53.0625<107.682 233.503>
Fore
272.594 700.938 m 0,0,1
 374.607 700.938 374.607 700.938 432.085 652.296 c 128,-1,2
 489.562 603.654 489.562 603.654 489.562 507.256 c 0,3,4
 489.562 444.731 489.562 444.731 454.438 402.187 c 128,-1,5
 419.312 359.642 419.312 359.642 370.539 346 c 1,6,7
 395.885 334.938 395.885 334.938 414.949 323.132 c 128,-1,8
 434.014 311.326 434.014 311.326 453.347 293.176 c 128,-1,9
 472.681 275.025 472.681 275.025 483.121 249.322 c 128,-1,10
 493.562 223.619 493.562 223.619 493.562 192 c 0,11,12
 493.562 0.90625 493.562 0.90625 269.75 0.90625 c 0,13,14
 154.329 0.90625 154.329 0.90625 101.414 50.1426 c 128,-1,15
 48.5 99.3789 48.5 99.3789 48.5 194 c 0,16,17
 48.5 257.396 48.5 257.396 78.8018 289.926 c 128,-1,18
 109.104 322.455 109.104 322.455 168.21 344 c 1,19,20
 114.663 354.29 114.663 354.29 83.582 396.994 c 128,-1,21
 52.5 439.697 52.5 439.697 52.5 507.256 c 0,22,23
 60.5332 700.938 60.5332 700.938 272.594 700.938 c 0,0,1
271.988 649.309 m 0,24,25
 105.562 649.309 105.562 649.309 105.562 510.227 c 0,26,27
 105.562 438.808 105.562 438.808 151.496 403.221 c 128,-1,28
 197.431 367.635 197.431 367.635 269.244 370.174 c 0,29,30
 332.633 367.855 332.633 367.855 385.566 410.089 c 128,-1,31
 438.5 452.322 438.5 452.322 438.5 507.256 c 0,32,33
 438.5 573.668 438.5 573.668 394.799 611.488 c 128,-1,34
 351.097 649.309 351.097 649.309 271.988 649.309 c 0,24,25
275.272 316.169 m 0,35,36
 190.713 316.169 190.713 316.169 146.138 279.11 c 128,-1,37
 101.562 242.051 101.562 242.051 101.562 192 c 0,38,39
 101.562 55.0996 101.562 55.0996 270.656 55.0996 c 0,40,41
 352.906 55.0996 352.906 55.0996 396.703 91.1191 c 128,-1,42
 440.5 127.14 440.5 127.14 440.5 192 c 0,43,44
 437.83 249.989 437.83 249.989 387.165 282.674 c 128,-1,45
 336.5 315.357 336.5 315.357 275.272 316.169 c 0,35,36
EndSplineSet
EndChar
StartChar: nine
Encoding: 57 57 26
Width: 475
GlyphClass: 2
Flags: W
HStem: -0.6875 54.125<200.706 277.47> 323.562 54.4062<98.7666 302.538> 641.906 54<143.137 328.527>
VStem: 31.1875 53.8125<388.791 601.102> 369.188 55.8125<166.568 361.594 403.066 549.915>
Fore
235.25 695.906 m 0,0,1
 328.493 695.906 328.493 695.906 376.746 635.531 c 128,-1,2
 425 575.156 425 575.156 425 468 c 2,3,-1
 425 202.769 l 2,4,5
 425 120.525 425 120.525 371.622 59.9189 c 128,-1,6
 318.244 -0.6875 318.244 -0.6875 231.062 -0.6875 c 0,7,8
 181.105 -0.6875 181.105 -0.6875 130.568 33.8301 c 128,-1,9
 80.0312 68.3477 80.0312 68.3477 80.0312 97.9688 c 0,10,11
 80.0312 109.043 80.0312 109.043 87.8691 116.881 c 128,-1,12
 95.707 124.719 95.707 124.719 106.781 124.719 c 128,-1,13
 117.752 124.719 117.752 124.719 124.781 115.035 c 0,14,15
 147.687 86.3047 147.687 86.3047 177.422 69.9336 c 128,-1,16
 207.156 53.5615 207.156 53.5615 228.656 53.4375 c 0,17,18
 266.205 53.4375 266.205 53.4375 293.175 65.4297 c 128,-1,19
 320.145 77.4219 320.145 77.4219 335.276 99.6846 c 128,-1,20
 350.408 121.947 350.408 121.947 358.057 146.154 c 128,-1,21
 365.705 170.361 365.705 170.361 369.188 202 c 2,22,-1
 369.188 361.594 l 1,23,24
 348.313 340.719 348.313 340.719 316.667 332.141 c 128,-1,25
 285.02 323.562 285.02 323.562 230.125 323.562 c 0,26,27
 129.08 323.562 129.08 323.562 80.1338 368.086 c 128,-1,28
 31.1875 412.608 31.1875 412.608 31.1875 492 c 0,29,30
 31.1875 589.103 31.1875 589.103 82.9297 642.505 c 128,-1,31
 134.672 695.906 134.672 695.906 235.25 695.906 c 0,0,1
233.188 641.906 m 0,32,33
 163.918 641.906 163.918 641.906 124.459 608.915 c 128,-1,34
 85 575.925 85 575.925 85 492 c 0,35,36
 88.6797 377.969 88.6797 377.969 231.188 377.969 c 0,37,38
 298.106 377.969 298.106 377.969 333.646 398.01 c 128,-1,39
 369.188 418.051 369.188 418.051 369.188 468 c 0,40,41
 365.015 555.646 365.015 555.646 335.77 598.776 c 128,-1,42
 306.525 641.906 306.525 641.906 233.188 641.906 c 0,32,33
EndSplineSet
EndChar
StartChar: colon
Encoding: 58 58 27
Width: 227
GlyphClass: 2
Flags: W
HStem: 127.236 53.5352<85.7666 117.733> 356.746 53.5352<86.371 117.733>
VStem: 75 53.5<138.002 170.008 368.217 395.827>
Fore
128.5 153.986 m 128,-1,1
 128.5 142.911 128.5 142.911 120.662 135.074 c 128,-1,2
 112.824 127.236 112.824 127.236 101.75 127.236 c 128,-1,3
 90.6758 127.236 90.6758 127.236 82.8379 135.074 c 128,-1,4
 75 142.911 75 142.911 75 153.986 c 128,-1,5
 75 165.096 75 165.096 82.8379 172.934 c 128,-1,6
 90.6758 180.771 90.6758 180.771 101.75 180.771 c 128,-1,7
 112.824 180.771 112.824 180.771 120.662 172.934 c 128,-1,0
 128.5 165.096 128.5 165.096 128.5 153.986 c 128,-1,1
128.5 383.496 m 2,8,9
 128.5 372.422 128.5 372.422 120.662 364.584 c 128,-1,10
 112.824 356.746 112.824 356.746 101.75 356.746 c 128,-1,11
 90.6758 356.746 90.6758 356.746 81.5879 365.834 c 0,12,13
 75 374.922 75 374.922 75 383.496 c 2,14,-1
 75 383.531 l 2,15,16
 75 394.606 75 394.606 82.8379 402.443 c 128,-1,17
 90.6758 410.281 90.6758 410.281 101.75 410.281 c 128,-1,18
 112.824 410.281 112.824 410.281 120.662 402.443 c 128,-1,19
 128.5 394.606 128.5 394.606 128.5 383.531 c 2,20,-1
 128.5 383.496 l 2,8,9
EndSplineSet
EndChar
StartChar: semicolon
Encoding: 59 59 28
Width: 223
GlyphClass: 2
Flags: W
HStem: 356.746 53.5352<93.2754 125.242>
VStem: 82.3379 53.5<13.4121 199.381 367.513 395.827>
Fore
109.088 210.147 m 128,-1,1
 120.162 210.147 120.162 210.147 128 202.31 c 128,-1,2
 135.838 194.472 135.838 194.472 135.838 183.397 c 2,3,-1
 135.838 25.707 l 2,4,5
 135.838 14.6328 135.838 14.6328 128 6.79492 c 128,-1,6
 120.162 -1.04297 120.162 -1.04297 109.088 -1.04297 c 128,-1,7
 98.0137 -1.04297 98.0137 -1.04297 90.1758 6.79492 c 128,-1,8
 82.3379 14.6328 82.3379 14.6328 82.3379 25.707 c 2,9,-1
 82.3379 183.397 l 2,10,11
 82.3379 194.472 82.3379 194.472 90.1758 202.31 c 128,-1,0
 98.0137 210.147 98.0137 210.147 109.088 210.147 c 128,-1,1
136.009 383.496 m 2,12,13
 136.009 372.422 136.009 372.422 128.171 364.584 c 128,-1,14
 120.333 356.746 120.333 356.746 109.259 356.746 c 128,-1,15
 98.1846 356.746 98.1846 356.746 90.3467 364.584 c 128,-1,16
 82.5088 372.422 82.5088 372.422 82.5088 383.496 c 2,17,-1
 82.5088 383.531 l 2,18,19
 82.5088 394.606 82.5088 394.606 90.3467 402.443 c 128,-1,20
 98.1846 410.281 98.1846 410.281 109.259 410.281 c 128,-1,21
 120.333 410.281 120.333 410.281 128.171 402.443 c 128,-1,22
 136.009 394.606 136.009 394.606 136.009 383.531 c 2,23,-1
 136.009 383.496 l 2,12,13
EndSplineSet
EndChar
StartChar: less
Encoding: 60 60 29
Width: 465
GlyphClass: 2
Flags: W
VStem: 16 378.876<27.4375 372.219>
Fore
367.094 746.688 m 4,0,1
 368.783 746.751 368.783 746.751 370.876 746.531 c 4,2,3
 381.891 745.374 381.891 745.374 388.867 736.771 c 132,-1,4
 395.845 728.167 395.845 728.167 394.688 717.156 c 4,5,6
 394.004 710.617 394.004 710.617 390.438 705.219 c 5,7,-1
 81.9375 372.406 l 5,8,-1
 390.594 39.375 l 5,9,10
 394.196 33.9209 394.196 33.9209 394.876 27.4375 c 4,11,12
 396.032 16.4229 396.032 16.4229 389.055 7.80566 c 132,-1,13
 382.076 -0.811523 382.076 -0.811523 371.062 -1.96875 c 4,14,15
 354.941 -3.66309 354.941 -3.66309 345.969 9.90625 c 5,16,-1
 21.3125 354.875 l 6,17,18
 16.0947 360.882 16.0947 360.882 16 372.219 c 4,19,20
 16 382.443 16 382.443 23.0625 390.625 c 6,21,-1
 345.782 734.656 l 5,22,23
 353.399 746.18 353.399 746.18 367.094 746.688 c 4,0,1
EndSplineSet
EndChar
StartChar: equal
Encoding: 61 61 30
Width: 521
GlyphClass: 2
Flags: W
HStem: 230.14 53.5<72.7666 471.971> 468.192 53.5<72.7666 471.971>
Fore
62 494.942 m 128,-1,1
 62 506.017 62 506.017 69.8379 513.854 c 128,-1,2
 77.6758 521.692 77.6758 521.692 88.75 521.692 c 2,3,-1
 459.676 521.692 l 2,4,5
 470.75 521.692 470.75 521.692 478.588 513.854 c 128,-1,6
 486.426 506.017 486.426 506.017 486.426 494.942 c 128,-1,7
 486.426 483.867 486.426 483.867 478.588 476.03 c 128,-1,8
 470.75 468.192 470.75 468.192 459.676 468.192 c 2,9,-1
 88.75 468.192 l 2,10,11
 77.6758 468.192 77.6758 468.192 69.8379 476.03 c 128,-1,0
 62 483.868 62 483.868 62 494.942 c 128,-1,1
62 256.89 m 128,-1,13
 62 267.964 62 267.964 69.8379 275.802 c 128,-1,14
 77.6758 283.64 77.6758 283.64 88.75 283.64 c 2,15,-1
 459.676 283.64 l 2,16,17
 470.75 283.64 470.75 283.64 478.588 275.802 c 128,-1,18
 486.426 267.964 486.426 267.964 486.426 256.89 c 128,-1,19
 486.426 245.814 486.426 245.814 478.588 237.978 c 128,-1,20
 470.75 230.14 470.75 230.14 459.676 230.14 c 2,21,-1
 88.75 230.14 l 2,22,23
 77.6758 230.14 77.6758 230.14 69.8379 237.978 c 128,-1,12
 62 245.815 62 245.815 62 256.89 c 128,-1,13
EndSplineSet
EndChar
StartChar: greater
Encoding: 62 62 31
Width: 467
GlyphClass: 2
Flags: W
VStem: 56.9062 378.876<27.4375 372.219>
Fore
84.6885 746.688 m 0,0,1
 98.3828 746.18 98.3828 746.18 106 734.656 c 1,2,-1
 428.72 390.625 l 2,3,4
 435.782 382.443 435.782 382.443 435.782 372.219 c 0,5,6
 435.688 360.882 435.688 360.882 430.47 354.875 c 2,7,-1
 105.813 9.90625 l 1,8,9
 96.8408 -3.66309 96.8408 -3.66309 80.7197 -1.96875 c 0,10,11
 69.7061 -0.811523 69.7061 -0.811523 62.7275 7.80566 c 128,-1,12
 55.75 16.4229 55.75 16.4229 56.9062 27.4375 c 0,13,14
 57.5859 33.9209 57.5859 33.9209 61.1885 39.375 c 1,15,-1
 369.845 372.406 l 1,16,-1
 61.3447 705.219 l 1,17,18
 57.7783 710.617 57.7783 710.617 57.0947 717.156 c 0,19,20
 55.9375 728.167 55.9375 728.167 62.915 736.771 c 128,-1,21
 69.8916 745.374 69.8916 745.374 80.9062 746.531 c 0,22,23
 82.999 746.751 82.999 746.751 84.6885 746.688 c 0,0,1
EndSplineSet
EndChar
StartChar: question
Encoding: 63 63 32
Width: 561
GlyphClass: 2
Flags: W
HStem: 8.38477 53.5352<169.895 201.861> 663.574 52.1758<191.713 327.125>
VStem: 71.8203 53.8125<569.183 602.305> 160.259 53.374<19.1514 51.1575 249.673 370.503> 404.259 51.374<513.357 624.598>
Fore
71.8203 583.875 m 4,0,1
 72.6836 627.719 72.6836 627.719 103.324 659.726 c 132,-1,2
 133.965 691.732 133.965 691.732 174.738 704.879 c 132,-1,3
 215.513 718.024 215.513 718.024 256.012 715.75 c 4,4,5
 450.653 706.198 450.653 706.198 455.633 562.049 c 4,6,7
 455.633 524.594 455.633 524.594 445.547 495.704 c 132,-1,8
 435.461 466.815 435.461 466.815 420.174 449.578 c 132,-1,9
 404.886 432.341 404.886 432.341 382.404 420.592 c 132,-1,10
 359.924 408.843 359.924 408.843 339.716 403.89 c 132,-1,11
 319.508 398.937 319.508 398.937 295 396.393 c 4,12,13
 253.734 392.709 253.734 392.709 233.512 375.75 c 132,-1,14
 213.288 358.791 213.288 358.791 213.633 319.75 c 6,15,-1
 212.633 240.719 l 6,16,17
 212.634 229.645 212.634 229.645 204.796 221.807 c 132,-1,18
 196.958 213.969 196.958 213.969 185.883 213.969 c 132,-1,19
 174.81 213.969 174.81 213.969 166.972 221.807 c 132,-1,20
 159.134 229.645 159.134 229.645 159.133 240.719 c 4,21,22
 159.133 255.88 159.133 255.88 159.695 280.701 c 132,-1,23
 160.259 305.523 160.259 305.523 160.259 319.75 c 4,24,25
 160.259 368.259 160.259 368.259 198.549 407.449 c 132,-1,26
 236.839 446.64 236.839 446.64 296.937 448.562 c 4,27,28
 351.462 448.562 351.462 448.562 377.369 482.679 c 132,-1,29
 403.275 516.794 403.275 516.794 404.259 561.796 c 4,30,31
 401.268 610.105 401.268 610.105 355.445 637.682 c 132,-1,32
 309.624 665.258 309.624 665.258 251.287 663.574 c 4,33,34
 188.226 663.574 188.226 663.574 161.357 642.19 c 132,-1,35
 134.49 620.807 134.49 620.807 125.633 587.75 c 5,36,37
 125.463 575.059 125.463 575.059 118.301 566.417 c 132,-1,38
 111.14 557.775 111.14 557.775 98.5703 557.125 c 4,39,40
 87.4961 557.125 87.4961 557.125 79.6582 564.963 c 132,-1,41
 71.8203 572.801 71.8203 572.801 71.8203 583.875 c 4,0,1
212.628 35.1348 m 132,-1,43
 212.628 24.0605 212.628 24.0605 204.79 16.2227 c 132,-1,44
 196.952 8.38477 196.952 8.38477 185.878 8.38477 c 132,-1,45
 174.804 8.38477 174.804 8.38477 166.966 16.2227 c 132,-1,46
 159.128 24.0605 159.128 24.0605 159.128 35.1348 c 132,-1,47
 159.128 46.2451 159.128 46.2451 166.966 54.082 c 132,-1,48
 174.804 61.9199 174.804 61.9199 185.878 61.9199 c 132,-1,49
 196.952 61.9199 196.952 61.9199 204.79 54.082 c 132,-1,42
 212.628 46.2451 212.628 46.2451 212.628 35.1348 c 132,-1,43
EndSplineSet
EndChar
StartChar: at
Encoding: 64 64 33
Width: 947
GlyphClass: 2
Flags: W
HStem: -92.4062 53.4375<285.824 338.797> 24.4062 53.4961<389.449 501.903> 427.267 53.5771<391.35 508.472> 597.906 51<348.374 545.996>
VStem: 126.5 53.5<159.299 365.004> 298.5 51.5<174.342 330.471> 554.5 51.5<149.021 322.247> 766.5 53.5<169.636 367.125>
Fore
456.031 648.906 m 4,0,1
 619.275 648.906 619.275 648.906 719.654 537.688 c 132,-1,2
 820.034 426.471 820.034 426.471 820 251.75 c 4,3,4
 820 160.885 820 160.885 799.316 77.9961 c 132,-1,5
 778.632 -4.89258 778.632 -4.89258 741.348 -55.7529 c 132,-1,6
 704.062 -106.613 704.062 -106.613 660.563 -102 c 4,7,8
 633.789 -99.1602 633.789 -99.1602 612.914 -82.2744 c 132,-1,9
 592.04 -65.3887 592.04 -65.3887 579.34 -38.7715 c 132,-1,10
 566.639 -12.1553 566.639 -12.1553 559.268 14.4414 c 132,-1,11
 551.897 41.0371 551.897 41.0371 547.75 71.5 c 5,12,13
 526.834 43.4619 526.834 43.4619 508.441 33.9336 c 132,-1,14
 490.048 24.4062 490.048 24.4062 450.531 24.4062 c 4,15,16
 403.545 24.4062 403.545 24.4062 368.75 58.0977 c 132,-1,17
 333.956 91.7881 333.956 91.7881 317.252 141.997 c 132,-1,18
 300.547 192.205 300.547 192.205 298.5 251.75 c 4,19,20
 298.5 312.305 298.5 312.305 314.662 362.511 c 132,-1,21
 330.824 412.717 330.824 412.717 368.635 446.78 c 132,-1,22
 406.444 480.844 406.444 480.844 460.625 480.844 c 4,23,24
 497.431 480.844 497.431 480.844 525.67 462.847 c 132,-1,25
 553.909 444.85 553.909 444.85 570.53 413.858 c 132,-1,26
 587.151 382.866 587.151 382.866 595.862 346.269 c 132,-1,27
 604.573 309.671 604.573 309.671 606 267.75 c 6,28,-1
 606 79.75 l 6,29,30
 604.434 37.1289 604.434 37.1289 620.691 -5.16992 c 132,-1,31
 636.95 -47.4688 636.95 -47.4688 661.25 -47.4688 c 4,32,33
 675.621 -47.4688 675.621 -47.4688 693.562 -24.8447 c 132,-1,34
 711.505 -2.2207 711.505 -2.2207 727.881 35.6885 c 132,-1,35
 744.257 73.5977 744.257 73.5977 755.379 131.46 c 132,-1,36
 766.5 189.322 766.5 189.322 766.5 251.75 c 4,37,38
 766.5 340.5 766.5 340.5 743.414 407.814 c 132,-1,39
 720.328 475.128 720.328 475.128 678.33 516.175 c 132,-1,40
 636.333 557.223 636.333 557.223 580.982 577.564 c 132,-1,41
 525.632 597.906 525.632 597.906 457.75 597.906 c 4,42,43
 335.488 597.906 335.488 597.906 257.744 503.137 c 132,-1,44
 180 408.366 180 408.366 180 251.75 c 4,45,46
 180 180.634 180 180.634 203.766 111.55 c 132,-1,47
 227.532 42.4658 227.532 42.4658 261.137 1.74805 c 132,-1,48
 294.742 -38.9688 294.742 -38.9688 324.469 -38.9688 c 4,49,50
 349.563 -38.9688 349.563 -38.9688 349.563 -65.6562 c 4,51,52
 349.563 -76.7305 349.563 -76.7305 341.726 -84.5684 c 132,-1,53
 333.888 -92.4062 333.888 -92.4062 322.813 -92.4062 c 4,54,55
 271.146 -92.4062 271.146 -92.4062 225.369 -42.6494 c 132,-1,56
 179.594 7.10742 179.594 7.10742 153.047 86.6035 c 132,-1,57
 126.5 166.101 126.5 166.101 126.5 251.75 c 4,58,59
 126.5 338.868 126.5 338.868 146.524 410.481 c 132,-1,60
 166.549 482.096 166.549 482.096 206.158 535.825 c 132,-1,61
 245.769 589.555 245.769 589.555 309.493 619.23 c 132,-1,62
 373.218 648.906 373.218 648.906 456.031 648.906 c 4,0,1
457.219 427.267 m 4,63,64
 406.551 427.267 406.551 427.267 378.275 380.348 c 132,-1,65
 350 333.429 350 333.429 350 257 c 4,66,67
 350 159.044 350 159.044 377.142 118.473 c 132,-1,68
 404.283 77.9023 404.283 77.9023 456.938 77.9023 c 4,69,70
 505.736 77.9023 505.736 77.9023 530.118 127.161 c 132,-1,71
 554.5 176.42 554.5 176.42 554.5 267.75 c 4,72,73
 554.5 348.688 554.5 348.688 528.965 387.978 c 132,-1,74
 503.43 427.267 503.43 427.267 457.219 427.267 c 4,63,64
EndSplineSet
EndChar
StartChar: bracketleft
Encoding: 91 91 60
Width: 373
GlyphClass: 2
Flags: W
HStem: 1.5 52.5<115 246.155> 691.906 53.5<114.873 249.888>
VStem: 61.4365 53.5635<54 691.906>
Fore
115 54 m 5,0,-1
 233.904 55 l 6,1,2
 244.886 55.0924 244.886 55.0924 252.816 47.1621 c 132,-1,3
 260.654 39.3242 260.654 39.3242 260.654 28.25 c 132,-1,4
 260.654 17.1758 260.654 17.1758 252.816 9.33789 c 132,-1,5
 244.979 1.5 244.979 1.5 233.904 1.5 c 6,6,-1
 90.373 1.5 l 6,7,8
 89.2119 1.40625 89.2119 1.40625 88.1543 1.40625 c 4,9,10
 77.5068 1.40723 77.5068 1.40723 69.7822 8.69824 c 4,11,12
 61.437 16.0464 61.437 16.0464 61.4365 26.5312 c 6,13,-1
 61.4043 718.531 l 6,14,15
 61.4042 719.596 61.4042 719.596 61.5928 721.375 c 132,-1,16
 61.7793 723.128 61.7793 723.128 61.9678 723.906 c 6,17,-1
 61.998 724.031 l 6,18,19
 62.1377 724.689 62.1377 724.689 62.3115 725.344 c 4,20,21
 62.6768 726.728 62.6768 726.728 63.0928 727.844 c 4,22,23
 63.2451 728.262 63.2451 728.262 63.5303 728.938 c 4,24,25
 64.7598 731.886 64.7598 731.886 66.7178 734.531 c 4,26,27
 74.7646 745.406 74.7646 745.406 88.2178 745.406 c 6,28,-1
 233.904 745.406 l 6,29,30
 244.979 745.406 244.979 745.406 252.816 737.568 c 132,-1,31
 260.654 729.73 260.654 729.73 260.654 718.656 c 132,-1,32
 260.654 707.582 260.654 707.582 252.816 699.744 c 132,-1,33
 244.979 691.906 244.979 691.906 233.904 691.906 c 6,34,-1
 114.873 691.906 l 5,35,-1
 115 54 l 5,0,-1
EndSplineSet
EndChar
StartChar: backslash
Encoding: 92 92 61
Width: 649
GlyphClass: 2
Flags: W
HStem: 0 21G<568.345 577.194>
Fore
88.7812 698.031 m 0,0,1
 104.991 698.031 104.991 698.031 112.5 683.594 c 1,2,-1
 591.157 45.0625 l 2,3,4
 593.389 42.5938 593.389 42.5938 594.563 40.5938 c 0,5,6
 598.407 34.2451 598.407 34.2451 598.407 26.75 c 0,7,8
 598.407 15.6758 598.407 15.6758 590.569 7.83789 c 128,-1,9
 582.73 0 582.73 0 571.657 0 c 0,10,11
 565.032 0 565.032 0 559.74 3.06348 c 128,-1,12
 554.448 6.12695 554.448 6.12695 550.872 10.8496 c 128,-1,13
 547.297 15.5713 547.297 15.5713 542.563 21.25 c 2,14,-1
 65.0312 658.969 l 1,15,16
 62.0312 664.739 62.0312 664.739 62.0312 671.281 c 0,17,18
 62.0322 682.355 62.0322 682.355 69.8701 690.193 c 128,-1,19
 77.708 698.031 77.708 698.031 88.7812 698.031 c 0,0,1
EndSplineSet
EndChar
StartChar: bracketright
Encoding: 93 93 62
Width: 377
GlyphClass: 2
Flags: W
HStem: 1.5 52.5<88.718 219.873> 691.906 53.5<84.9853 220>
VStem: 219.873 53.5635<54 691.906>
Fore
219.873 54 m 1,0,-1
 220 691.906 l 1,1,-1
 100.969 691.906 l 2,2,3
 89.8945 691.906 89.8945 691.906 82.0566 699.744 c 128,-1,4
 74.2188 707.582 74.2188 707.582 74.2188 718.656 c 128,-1,5
 74.2188 729.73 74.2188 729.73 82.0566 737.568 c 128,-1,6
 89.8945 745.406 89.8945 745.406 100.969 745.406 c 2,7,-1
 246.655 745.406 l 2,8,9
 260.108 745.406 260.108 745.406 268.155 734.531 c 0,10,11
 270.113 731.886 270.113 731.886 271.343 728.938 c 0,12,13
 271.628 728.262 271.628 728.262 271.78 727.844 c 0,14,15
 272.196 726.728 272.196 726.728 272.562 725.344 c 0,16,17
 272.735 724.689 272.735 724.689 272.875 724.031 c 2,18,-1
 272.905 723.906 l 2,19,20
 273.094 723.128 273.094 723.128 273.28 721.375 c 128,-1,21
 273.469 719.596 273.469 719.596 273.469 718.531 c 2,22,-1
 273.437 26.5312 l 2,23,24
 273.436 16.0469 273.436 16.0469 265.091 8.69824 c 0,25,26
 257.366 1.40723 257.366 1.40723 246.719 1.40625 c 0,27,28
 245.661 1.40625 245.661 1.40625 244.5 1.5 c 2,29,-1
 100.969 1.5 l 2,30,31
 89.8945 1.5 89.8945 1.5 82.0566 9.33789 c 128,-1,32
 74.2188 17.1758 74.2188 17.1758 74.2188 28.25 c 128,-1,33
 74.2188 39.3242 74.2188 39.3242 82.0566 47.1621 c 128,-1,34
 89.9873 55.0928 89.9873 55.0928 100.969 55 c 2,35,-1
 219.873 54 l 1,0,-1
EndSplineSet
EndChar
StartChar: asciicircum
Encoding: 94 94 63
Width: 473
GlyphClass: 2
Flags: W
HStem: 541.625 258.938<66.8125 243.281>
VStem: 40.0625 406.624<553.979 583.396 568.375 568.375>
Fore
243.281 800.562 m 0,0,1
 257.632 800.562 257.632 800.562 265.594 788.562 c 2,2,-1
 436.437 589.406 l 1,3,4
 446.687 581.352 446.687 581.352 446.687 568.375 c 0,5,6
 446.688 557.301 446.688 557.301 438.85 549.463 c 128,-1,7
 431.012 541.625 431.012 541.625 419.937 541.625 c 128,-1,8
 408.895 541.625 408.895 541.625 401.062 549.406 c 1,9,-1
 243 733.5 l 1,10,-1
 90.0312 555.062 l 1,11,12
 82.3066 541.625 82.3066 541.625 66.8125 541.625 c 0,13,14
 55.7383 541.625 55.7383 541.625 47.9004 549.463 c 128,-1,15
 40.0625 557.301 40.0625 557.301 40.0625 568.375 c 0,16,17
 40.0605 579.93 40.0605 579.93 48.5312 587.875 c 0,18,19
 91.4902 640.914 91.4902 640.914 219.75 786.562 c 1,20,21
 227.359 800.562 227.359 800.562 243.281 800.562 c 0,0,1
EndSplineSet
EndChar
StartChar: underscore
Encoding: 95 95 64
Width: 543
GlyphClass: 2
Flags: W
HStem: 0 53.5<44.0452 467.592>
Fore
58.125 53.5 m 2,0,-1
 455.297 53.5312 l 2,1,2
 466.371 53.5312 466.371 53.5312 474.209 45.6934 c 128,-1,3
 482.047 37.8555 482.047 37.8555 482.047 26.7812 c 0,4,5
 482.047 15.9375 482.047 15.9375 474.493 8.16797 c 128,-1,6
 466.939 0.398438 466.939 0.398438 456.141 0.0625 c 2,7,-1
 268.031 0 l 1,8,-1
 58.125 0 l 2,9,10
 47.583 0.68457 47.583 0.68457 40.292 8.40918 c 128,-1,11
 33 16.1338 33 16.1338 33 26.7812 c 128,-1,12
 33.001 37.4277 33.001 37.4277 40.292 45.1533 c 128,-1,13
 47.584 52.8779 47.584 52.8779 58.125 53.5 c 2,0,-1
EndSplineSet
EndChar
StartChar: grave
Encoding: 96 96 65
Width: 498
GlyphClass: 2
Flags: W
Fore
74.2773 676.482 m 132,-1,1
 80.7861 685.442 80.7861 685.442 91.7344 687.176 c 132,-1,2
 102.683 688.91 102.683 688.91 111.641 682.4 c 6,3,-1
 297.281 551.146 l 6,4,5
 306.242 544.636 306.242 544.636 307.977 533.689 c 132,-1,6
 309.711 522.742 309.711 522.742 303.199 513.782 c 132,-1,7
 296.69 504.822 296.69 504.822 285.742 503.089 c 132,-1,8
 274.794 501.354 274.794 501.354 265.836 507.864 c 6,9,-1
 80.1953 639.118 l 6,10,11
 71.2344 645.628 71.2344 645.628 69.5 656.574 c 132,-1,0
 67.7656 667.521 67.7656 667.521 74.2773 676.482 c 132,-1,1
EndSplineSet
EndChar
StartChar: a
Encoding: 97 97 66
Width: 397
GlyphClass: 2
Flags: W
HStem: 2.0127 53.4062<124.275 211.517> 402.084 53.4062<59.1442 221.734>
VStem: 35 53.5615<117.431 456.881> 291.931 53.5635<8.01764 37.9502 135.756 297.396>
Fore
185.994 455.49 m 0,0,1
 274.068 455.49 274.068 455.49 309.781 397.47 c 0,2,3
 345.653 339.193 345.653 339.193 345.494 220.053 c 2,4,-1
 345.213 9.54688 l 2,5,6
 345.199 -0.960145 345.199 -0.960145 337.118 -8.82617 c 0,7,8
 329.347 -16.3906 329.347 -16.3906 318.494 -16.3906 c 0,9,10
 307.42 -16.3906 307.42 -16.3906 299.583 -8.55273 c 128,-1,11
 291.682 -0.655398 291.682 -0.655398 291.744 10.3594 c 2,12,-1
 291.9 37.9502 l 2,13,14
 291.9 37.9551 291.9 37.9551 291.155 37.0459 c 128,-1,15
 290.41 36.1367 290.41 36.1367 288.888 34.3828 c 128,-1,16
 287.364 32.6289 287.364 32.6289 284.707 30.376 c 128,-1,17
 282.05 28.123 282.05 28.123 278.577 25.4912 c 128,-1,18
 275.105 22.8594 275.105 22.8594 270.087 20.1406 c 128,-1,19
 265.068 17.4229 265.068 17.4229 259.196 14.791 c 128,-1,20
 253.323 12.1592 253.323 12.1592 245.494 9.85352 c 128,-1,21
 237.665 7.54883 237.665 7.54883 228.942 5.79492 c 128,-1,22
 220.219 4.04199 220.219 4.04199 209.13 3.02734 c 128,-1,23
 198.041 2.0127 198.041 2.0127 185.994 2.0127 c 0,24,25
 117.48 2.0127 117.48 2.0127 76.2402 54.1074 c 128,-1,26
 35 106.201 35 106.201 35 218.615 c 0,27,28
 35 455.49 35 455.49 185.994 455.49 c 0,0,1
186.619 402.084 m 0,29,30
 88.5615 402.084 88.5615 402.084 88.5615 219.428 c 0,31,32
 88.5615 140.969 88.5615 140.969 113.612 98.1943 c 128,-1,33
 138.662 55.4189 138.662 55.4189 186.619 55.4189 c 0,34,35
 195.24 55.4189 195.24 55.4189 206.11 57.5146 c 128,-1,36
 216.98 59.6104 216.98 59.6104 232.892 67.376 c 128,-1,37
 248.804 75.1416 248.804 75.1416 261.312 87.543 c 128,-1,38
 273.821 99.9453 273.821 99.9453 282.876 123.476 c 128,-1,39
 291.931 147.007 291.931 147.007 291.931 177.714 c 0,40,41
 291.931 224.038 291.931 224.038 289.786 255.933 c 128,-1,42
 287.643 287.827 287.643 287.827 281.192 317.451 c 128,-1,43
 274.743 347.074 274.743 347.074 263.244 364.386 c 128,-1,44
 251.745 381.696 251.745 381.696 232.688 391.891 c 128,-1,45
 213.631 402.084 213.631 402.084 186.619 402.084 c 0,29,30
EndSplineSet
KernsSLIFO: 75 -48 0 0 15 -84 0 0 13 -388 0 0
EndChar
StartChar: b
Encoding: 98 98 67
Width: 419
GlyphClass: 2
Flags: W
HStem: -1.16309 53.4062<129.303 333.697> 419.223 53.3955<187.19 216.399>
VStem: 48.8125 53.5635<125.289 332.306 436.681 644.11> 324.876 53.5615<82.7245 357.554>
Fore
214.312 -1.16309 m 4,0,1
 125.527 -1.16309 125.527 -1.16309 87.1699 57.5713 c 132,-1,2
 48.8125 116.306 48.8125 116.306 48.8125 234.274 c 4,3,4
 48.8125 245.28 48.8125 245.28 49 254.056 c 5,5,-1
 48.9072 632.587 l 6,6,7
 48.9043 643.046 48.9043 643.046 57.1904 650.961 c 4,8,9
 64.9609 658.524 64.9609 658.524 75.8125 658.524 c 4,10,11
 86.8877 658.524 86.8877 658.524 94.7246 650.688 c 4,12,13
 103.161 642.252 103.161 642.252 102.562 631.774 c 6,14,-1
 102.407 629.056 l 5,15,-1
 102.407 436.681 l 5,16,17
 140.37 472.618 140.37 472.618 214.312 472.618 c 4,18,19
 308.439 472.618 308.439 472.618 343.438 416.744 c 132,-1,20
 378.438 360.869 378.438 360.869 378.438 235.712 c 4,21,22
 378.438 118.029 378.438 118.029 342.292 58.4326 c 132,-1,23
 306.146 -1.16309 306.146 -1.16309 214.312 -1.16309 c 4,0,1
213.688 52.2432 m 4,24,25
 324.876 52.2432 324.876 52.2432 324.876 234.899 c 4,26,27
 324.876 329.249 324.876 329.249 299.888 374.23 c 4,28,29
 269.117 429.622 269.117 429.622 213.688 419.212 c 4,30,31
 209.954 418.511 209.954 418.511 204.143 419.223 c 132,-1,32
 198.331 419.936 198.331 419.936 190.869 418.37 c 132,-1,33
 183.407 416.806 183.407 416.806 175.163 415.326 c 132,-1,34
 166.919 413.847 166.919 413.847 158.319 408.76 c 132,-1,35
 149.72 403.674 149.72 403.674 141.634 397.345 c 132,-1,36
 133.548 391.016 133.548 391.016 126.401 379.751 c 132,-1,37
 119.255 368.487 119.255 368.487 113.917 354.65 c 132,-1,38
 108.579 340.814 108.579 340.814 105.478 320.714 c 132,-1,39
 102.376 300.614 102.376 300.614 102.376 276.613 c 4,40,41
 102.376 160.21 102.376 160.21 125.576 106.227 c 132,-1,42
 148.776 52.2432 148.776 52.2432 213.688 52.2432 c 4,24,25
EndSplineSet
KernsSLIFO: 75 -46 0 0 15 -108 0 0 13 -388 0 0
EndChar
StartChar: c
Encoding: 99 99 68
Width: 367
GlyphClass: 2
Flags: W
HStem: -1 54.875<157.212 244.282> 421.375 53.125<143.224 235.909>
VStem: 42 53.627<175.884 320.295>
Fore
215.97 474.5 m 0,0,1
 253.758 474.5 253.758 474.5 289.144 452.657 c 128,-1,2
 324.529 430.814 324.529 430.814 328.127 398.969 c 0,3,4
 328.125 387.895 328.125 387.895 320.287 380.057 c 128,-1,5
 312.45 372.219 312.45 372.219 301.377 372.219 c 0,6,7
 289.676 372.219 289.676 372.219 282.122 380.763 c 0,8,9
 266.44 402.454 266.44 402.454 246.381 412.099 c 128,-1,10
 226.322 421.743 226.322 421.743 213.627 421.375 c 0,11,12
 159.471 421.375 159.471 421.375 127.548 369.81 c 128,-1,13
 95.625 318.244 95.625 318.244 95.627 238 c 0,14,15
 99.5391 159.955 99.5391 159.955 134.773 106.915 c 128,-1,16
 170.007 53.875 170.007 53.875 212.657 53.875 c 0,17,18
 226.07 54.3369 226.07 54.3369 237.337 53.4541 c 128,-1,19
 248.604 52.5703 248.604 52.5703 259.421 59.5049 c 128,-1,20
 270.238 66.4395 270.238 66.4395 277.127 83 c 0,21,22
 284.721 104.611 284.721 104.611 303.438 105.031 c 0,23,24
 314.513 105.031 314.513 105.031 322.351 97.1934 c 128,-1,25
 330.188 89.3555 330.188 89.3555 330.188 78.2812 c 0,26,27
 330.188 41.8857 330.188 41.8857 297.441 20.4424 c 128,-1,28
 264.695 -1 264.695 -1 212.938 -1 c 0,29,30
 167.632 -1 167.632 -1 134.115 18.7764 c 128,-1,31
 100.598 38.5537 100.598 38.5537 81.5781 73.627 c 128,-1,32
 62.5586 108.7 62.5586 108.7 53.1074 149.69 c 128,-1,33
 43.6553 190.68 43.6553 190.68 42 240 c 0,34,35
 42 301.766 42 301.766 59.9336 353.479 c 128,-1,36
 77.8672 405.19 77.8672 405.19 118.42 439.846 c 128,-1,37
 158.974 474.5 158.974 474.5 215.97 474.5 c 0,0,1
EndSplineSet
KernsSLIFO: 75 -46 0 0 15 -82 0 0 14 -210 0 0 13 -386 0 0
EndChar
StartChar: d
Encoding: 100 100 69
Width: 419
GlyphClass: 2
Flags: W
HStem: -0.875 53.4062<86.7408 291.134> 419.511 53.3955<204.039 233.248>
VStem: 42 53.5615<83.0126 357.842> 318.062 53.5635<125.577 332.594 436.969 644.398>
Fore
206.125 -0.875 m 0,0,1
 114.291 -0.875 114.291 -0.875 78.1455 58.7207 c 128,-1,2
 42 118.317 42 118.317 42 236 c 0,3,4
 42 361.157 42 361.157 76.999 417.032 c 128,-1,5
 111.998 472.906 111.998 472.906 206.125 472.906 c 0,6,7
 280.067 472.906 280.067 472.906 318.03 436.969 c 1,8,-1
 318.03 629.344 l 1,9,-1
 317.875 632.062 l 2,10,11
 317.276 642.54 317.276 642.54 325.713 650.976 c 0,12,13
 333.55 658.812 333.55 658.812 344.625 658.812 c 0,14,15
 355.477 658.812 355.477 658.812 363.247 651.249 c 0,16,17
 371.533 643.334 371.533 643.334 371.53 632.875 c 2,18,-1
 371.438 254.344 l 1,19,20
 371.625 245.568 371.625 245.568 371.625 234.562 c 0,21,22
 371.625 116.594 371.625 116.594 333.268 57.8594 c 128,-1,23
 294.91 -0.875 294.91 -0.875 206.125 -0.875 c 0,0,1
206.75 52.5312 m 0,24,25
 271.661 52.5312 271.661 52.5312 294.861 106.515 c 128,-1,26
 318.062 160.498 318.062 160.498 318.062 276.901 c 0,27,28
 318.062 300.902 318.062 300.902 314.96 321.002 c 128,-1,29
 311.858 341.103 311.858 341.103 306.521 354.938 c 128,-1,30
 301.183 368.775 301.183 368.775 294.036 380.039 c 128,-1,31
 286.89 391.304 286.89 391.304 278.804 397.633 c 128,-1,32
 270.718 403.962 270.718 403.962 262.118 409.048 c 128,-1,33
 253.519 414.135 253.519 414.135 245.274 415.614 c 128,-1,34
 237.03 417.094 237.03 417.094 229.568 418.658 c 128,-1,35
 222.106 420.224 222.106 420.224 216.295 419.511 c 128,-1,36
 210.483 418.799 210.483 418.799 206.75 419.5 c 0,37,38
 151.32 429.91 151.32 429.91 120.55 374.519 c 0,39,40
 95.5615 329.537 95.5615 329.537 95.5615 235.188 c 0,41,42
 95.5615 52.5312 95.5615 52.5312 206.75 52.5312 c 0,24,25
EndSplineSet
KernsSLIFO: 75 -52 0 0 15 -112 0 0 13 -394 0 0
EndChar
StartChar: e
Encoding: 101 101 70
Width: 417
GlyphClass: 2
Flags: W
HStem: -0.00639997 52.6627<153.724 278.955> 215.156 53.5625<101.938 318> 424.156 54.1875<150.954 248.82>
VStem: 42 59.9375<113.061 215.156 268.719 356.544>
Fore
219.406 478.344 m 0,0,1
 250.289 474.249 250.289 474.249 275.938 460 c 0,2,3
 322.637 430.813 322.637 430.813 347.287 372.477 c 128,-1,4
 371.938 314.141 371.938 314.141 371.938 241.875 c 0,5,6
 371.938 231.107 371.938 231.107 364.443 223.132 c 128,-1,7
 356.948 215.156 356.948 215.156 346.031 215.156 c 2,8,-1
 101.938 215.156 l 1,9,10
 102.634 136.621 102.634 136.621 137.334 94.6387 c 128,-1,11
 172.033 52.6562 172.033 52.6562 233.062 52.6562 c 0,12,13
 291.293 52.6562 291.293 52.6562 323.781 93.2812 c 1,14,15
 331.287 107.75 331.287 107.75 347.531 107.75 c 0,16,17
 358.605 107.75 358.605 107.75 366.443 99.9121 c 128,-1,18
 374.281 92.0742 374.281 92.0742 374.281 81 c 0,19,20
 374.281 67.1592 374.281 67.1592 362.969 59.1562 c 2,21,22
 343.97 29.958 343.97 29.958 306.045 14.8213 c 128,-1,23
 268.119 -0.314453 268.119 -0.314453 232 0 c 0,24,25
 145.965 1.46289 145.965 1.46289 93.2988 64.0605 c 128,-1,26
 40.6328 126.658 40.6328 126.658 42 240.312 c 0,27,28
 43.4033 362.234 43.4033 362.234 90.4141 420.289 c 128,-1,29
 137.425 478.344 137.425 478.344 219.406 478.344 c 0,0,1
214.593 424.156 m 0,30,31
 165.64 424.156 165.64 424.156 133.789 380.217 c 128,-1,32
 101.938 336.276 101.938 336.276 101.938 268.719 c 1,33,-1
 318 268.719 l 1,34,35
 318 301.597 318 301.597 307.529 335.875 c 128,-1,36
 297.058 370.152 297.058 370.152 272.383 397.154 c 128,-1,37
 247.707 424.156 247.707 424.156 214.593 424.156 c 0,30,31
EndSplineSet
KernsSLIFO: 75 -52 0 0 15 -86 0 0 13 -390 0 0
EndChar
StartChar: f
Encoding: 102 102 71
Width: 337
GlyphClass: 2
Flags: W
HStem: -1 21G<131.558 142.632> 400.844 53.5<57.2947 110.5 164 289.433> 612.906 50.5<176.064 246.522>
VStem: 110.531 53.5<21.767 400.844 454.344 583.85>
Fore
209.595 663.406 m 0,0,1
 250.498 663.406 250.498 663.406 283.906 651.281 c 0,2,3
 284.105 651.219 284.105 651.219 285.125 650.844 c 2,4,-1
 287.47 650 l 2,5,6
 302.688 642.592 302.688 642.592 302.688 625.719 c 0,7,8
 302.688 614.645 302.688 614.645 294.851 606.807 c 128,-1,9
 287.013 598.969 287.013 598.969 275.938 598.969 c 0,10,11
 267.683 598.969 267.683 598.969 260.875 603.625 c 1,12,13
 233.549 612.906 233.549 612.906 199.688 612.906 c 0,14,15
 181.516 612.906 181.516 612.906 172.773 589.489 c 128,-1,16
 164.032 566.072 164.032 566.072 164.031 506.812 c 2,17,-1
 164 454.344 l 1,18,-1
 277.188 454.375 l 2,19,20
 288.263 454.375 288.263 454.375 296.101 446.537 c 128,-1,21
 303.938 438.699 303.938 438.699 303.938 427.625 c 0,22,23
 303.938 416.781 303.938 416.781 296.385 409.012 c 128,-1,24
 288.83 401.242 288.83 401.242 278.031 400.906 c 1,25,-1
 164 400.844 l 1,26,-1
 163.845 25.75 l 2,27,28
 163.845 14.6758 163.845 14.6758 156.007 6.83789 c 128,-1,29
 148.169 -1 148.169 -1 137.095 -1 c 128,-1,30
 126.021 -1 126.021 -1 118.183 6.83789 c 128,-1,31
 110.345 14.6758 110.345 14.6758 110.345 25.75 c 2,32,-1
 110.5 400.844 l 1,33,-1
 68.125 400.844 l 2,34,35
 57.583 401.528 57.583 401.528 50.291 409.253 c 128,-1,36
 43 416.978 43 416.978 43 427.625 c 128,-1,37
 43.001 438.271 43.001 438.271 50.293 445.997 c 128,-1,38
 57.584 453.722 57.584 453.722 68.125 454.344 c 2,39,-1
 110.5 454.344 l 1,40,-1
 110.531 506.812 l 2,41,42
 110.531 599.046 110.531 599.046 130.592 631.226 c 128,-1,43
 150.651 663.406 150.651 663.406 209.595 663.406 c 0,0,1
EndSplineSet
KernsSLIFO: 75 -42 0 0 15 -218 0 0 14 -118 0 0 13 -520 0 0
EndChar
StartChar: g
Encoding: 103 103 72
Width: 419
GlyphClass: 2
Flags: W
HStem: -184.438 53.4062<172.567 254.556> -1.6875 54.75<176.063 253.751> 421.375 53<165.311 271.064>
VStem: 42.5938 53.4062<170.534 294.625> 47.458 50.4827<128.657 240.431> 320.594 51.4062<123.118 317.506>
Fore
219.531 474.375 m 0,0,1
 259.172 474.375 259.172 474.375 289.506 455.721 c 128,-1,2
 319.84 437.065 319.84 437.065 337.3 405.354 c 128,-1,3
 354.76 373.642 354.76 373.642 363.38 335.933 c 128,-1,4
 372 298.224 372 298.224 372 256 c 2,5,-1
 372 52 l 2,6,7
 370.674 23.9414 370.674 23.9414 369.302 5.99609 c 128,-1,8
 367.931 -11.9492 367.931 -11.9492 363.764 -39.4326 c 128,-1,9
 359.597 -66.916 359.597 -66.916 353.478 -84.7744 c 128,-1,10
 347.357 -102.633 347.357 -102.633 335.997 -123.327 c 128,-1,11
 324.638 -144.022 324.638 -144.022 309.454 -156.058 c 128,-1,12
 294.271 -168.094 294.271 -168.094 271.403 -176.266 c 128,-1,13
 248.537 -184.438 248.537 -184.438 219.938 -184.438 c 0,14,15
 169.532 -184.438 169.532 -184.438 127.943 -162.549 c 128,-1,16
 86.3545 -140.661 86.3545 -140.661 72.5625 -116.656 c 0,17,18
 71.6855 -115.343 71.6855 -115.343 71.2178 -113.969 c 0,19,20
 68.1875 -108.016 68.1875 -108.016 68.1875 -101.656 c 0,21,22
 68.1875 -90.582 68.1875 -90.582 76.0254 -82.7441 c 128,-1,23
 83.8633 -74.9062 83.8633 -74.9062 94.9375 -74.9062 c 0,24,25
 107.865 -74.9062 107.865 -74.9062 115.906 -85.0312 c 0,26,27
 116.157 -85.2842 116.157 -85.2842 125.078 -95.291 c 128,-1,28
 133.999 -105.299 133.999 -105.299 138.937 -108.621 c 128,-1,29
 143.874 -111.944 143.874 -111.944 155.479 -118.801 c 128,-1,30
 167.086 -125.657 167.086 -125.657 182.699 -128.344 c 128,-1,31
 198.312 -131.031 198.312 -131.031 218.594 -131.031 c 0,32,33
 246.257 -131.031 246.257 -131.031 266.358 -116.955 c 128,-1,34
 286.459 -102.879 286.459 -102.879 296.931 -78.8691 c 128,-1,35
 307.402 -54.8594 307.402 -54.8594 312.343 -31.0537 c 128,-1,36
 317.284 -7.24707 317.284 -7.24707 318.594 20 c 1,37,38
 280.91 5.14258 280.91 5.14258 266.362 1.72754 c 128,-1,39
 251.814 -1.6875 251.814 -1.6875 220.188 -1.6875 c 0,40,41
 175.323 -1.6875 175.323 -1.6875 142.577 12.6787 c 128,-1,42
 109.83 27.0439 109.83 27.0439 91.5342 48.3594 c 128,-1,43
 73.2393 69.6748 73.2393 69.6748 62.1279 103.795 c 128,-1,44
 51.0176 137.914 51.0176 137.914 47.458 167.528 c 128,-1,45
 43.8994 197.143 43.8994 197.143 42.5938 238 c 0,46,47
 44.29 278.229 44.29 278.229 49.0459 309.61 c 128,-1,48
 53.8008 340.992 53.8008 340.992 65.7881 373.211 c 128,-1,49
 77.7764 405.43 77.7764 405.43 96.4971 426.547 c 128,-1,50
 115.217 447.665 115.217 447.665 146.521 461.02 c 128,-1,51
 177.823 474.375 177.823 474.375 219.531 474.375 c 0,0,1
215.094 421.375 m 0,52,53
 96 421.375 96 421.375 96 232 c 0,54,55
 96 204.643 96 204.643 97.7432 183.751 c 128,-1,56
 99.4863 162.859 99.4863 162.859 106.658 136.753 c 128,-1,57
 113.83 110.646 113.83 110.646 126.303 93.6914 c 128,-1,58
 138.775 76.7363 138.775 76.7363 162.272 64.8994 c 128,-1,59
 185.77 53.0625 185.77 53.0625 218.125 53.0625 c 0,60,61
 233.737 53.0625 233.737 53.0625 245.911 53.9756 c 128,-1,62
 258.086 54.8887 258.086 54.8887 268.124 58.624 c 128,-1,63
 278.161 62.3584 278.161 62.3584 285.468 65.0254 c 128,-1,64
 292.775 67.6914 292.775 67.6914 298.456 76.209 c 128,-1,65
 304.136 84.7266 304.136 84.7266 307.806 89.8604 c 128,-1,66
 311.475 94.9951 311.475 94.9951 314.028 109.009 c 128,-1,67
 316.581 123.023 316.581 123.023 317.845 131.339 c 128,-1,68
 319.107 139.654 319.107 139.654 319.763 159.88 c 128,-1,69
 320.417 180.104 320.417 180.104 320.505 192.316 c 128,-1,70
 320.594 204.527 320.594 204.527 320.594 231.344 c 0,71,72
 320.594 326.717 320.594 326.717 291.759 374.046 c 128,-1,73
 262.924 421.375 262.924 421.375 215.094 421.375 c 0,52,53
EndSplineSet
KernsSLIFO: 75 62 0 0 15 -88 0 0 13 -392 0 0
EndChar
StartChar: h
Encoding: 104 104 73
Width: 425
GlyphClass: 2
Flags: W
HStem: 0 21G<71.6807 82.7549 348.244 359.318> 422.938 53.0625<156.426 276.991>
VStem: 50.4678 53.5<14.4551 356.526 441.062 659.671> 327.781 51.7188<14.4551 362.744>
Fore
77.2178 670.438 m 128,-1,1
 88.292 670.438 88.292 670.438 96.1299 662.6 c 128,-1,2
 103.968 654.762 103.968 654.762 103.968 643.688 c 2,3,-1
 103.968 441.062 l 1,4,5
 144.63 475.455 144.63 475.455 216.75 476 c 0,6,7
 293.938 476 293.938 476 336.72 421.669 c 128,-1,8
 379.5 367.338 379.5 367.338 379.5 287.75 c 2,9,-1
 380.531 26.75 l 2,10,11
 380.531 15.6758 380.531 15.6758 372.693 7.83789 c 128,-1,12
 364.855 0 364.855 0 353.781 0 c 128,-1,13
 342.707 0 342.707 0 334.869 7.83789 c 128,-1,14
 327.031 15.6758 327.031 15.6758 327.031 26.75 c 0,15,16
 327.031 63.5684 327.031 63.5684 327.406 155.469 c 128,-1,17
 327.781 247.368 327.781 247.368 327.781 287.75 c 0,18,19
 327.781 345.438 327.781 345.438 295.396 384.188 c 128,-1,20
 263.01 422.938 263.01 422.938 216.406 422.938 c 0,21,22
 170.268 422.938 170.268 422.938 139.038 389.327 c 128,-1,23
 107.808 355.716 107.808 355.716 103.968 304 c 2,24,-1
 103.968 26.75 l 2,25,26
 103.968 15.6758 103.968 15.6758 96.1299 7.83789 c 128,-1,27
 88.292 0 88.292 0 77.2178 0 c 128,-1,28
 66.1436 0 66.1436 0 58.3057 7.83789 c 128,-1,29
 50.4678 15.6758 50.4678 15.6758 50.4678 26.75 c 2,30,-1
 50.4678 643.688 l 2,31,32
 50.4678 654.762 50.4678 654.762 58.3057 662.6 c 128,-1,0
 66.1436 670.438 66.1436 670.438 77.2178 670.438 c 128,-1,1
EndSplineSet
KernsSLIFO: 75 -50 0 0 15 -84 0 0 13 -388 0 0
EndChar
StartChar: i
Encoding: 105 105 74
Width: 151
GlyphClass: 2
Flags: W
HStem: 0 21G<72.7129 83.7871> 616.252 53.5361<62.2939 94.2607>
VStem: 51.5 53.5<14.4551 465.057 627.019 659.025>
Fore
78.25 475.823 m 128,-1,1
 89.3242 475.823 89.3242 475.823 97.1621 467.985 c 128,-1,2
 105 460.147 105 460.147 105 449.073 c 2,3,-1
 105 26.75 l 2,4,5
 105 15.6758 105 15.6758 97.1621 7.83789 c 128,-1,6
 89.3242 0 89.3242 0 78.25 0 c 128,-1,7
 67.1758 0 67.1758 0 59.3379 7.83789 c 128,-1,8
 51.5 15.6758 51.5 15.6758 51.5 26.75 c 2,9,-1
 51.5 449.073 l 2,10,11
 51.5 460.147 51.5 460.147 59.3379 467.985 c 128,-1,0
 67.1758 475.823 67.1758 475.823 78.25 475.823 c 128,-1,1
105.027 643.002 m 128,-1,13
 105.027 631.928 105.027 631.928 97.1895 624.09 c 128,-1,14
 89.3516 616.252 89.3516 616.252 78.2773 616.252 c 128,-1,15
 67.2031 616.252 67.2031 616.252 59.3652 624.09 c 128,-1,16
 51.5273 631.928 51.5273 631.928 51.5273 643.002 c 128,-1,17
 51.5273 654.112 51.5273 654.112 59.3652 661.95 c 128,-1,18
 67.2031 669.788 67.2031 669.788 78.2773 669.788 c 128,-1,19
 89.3516 669.788 89.3516 669.788 97.1895 661.95 c 128,-1,12
 105.027 654.112 105.027 654.112 105.027 643.002 c 128,-1,13
EndSplineSet
KernsSLIFO: 75 -52 0 0 15 -88 0 0 13 -392 0 0
EndChar
StartChar: j
Encoding: 106 106 75
Width: 217
GlyphClass: 2
Flags: W
HStem: -184.844 50.5<21.3235 91.78> 616.506 53.5352<114.128 146.095>
VStem: 104 53.5<-87.5107 468.796 627.272 659.279>
Fore
130.75 479.562 m 128,-1,1
 141.824 479.562 141.824 479.562 150.524 470.862 c 0,2,3
 157.504 463.873 157.504 463.873 157.5 452.812 c 2,4,-1
 157.312 -28.25 l 2,5,6
 157.312 -120.483 157.312 -120.483 137.253 -152.664 c 128,-1,7
 117.193 -184.844 117.193 -184.844 58.25 -184.844 c 0,8,9
 17.3467 -184.844 17.3467 -184.844 -16.0635 -172.719 c 0,10,11
 -16.2412 -172.664 -16.2412 -172.664 -17.2812 -172.281 c 2,12,-1
 -19.625 -171.438 l 2,13,14
 -34.8447 -164.03 -34.8447 -164.03 -34.8447 -147.156 c 0,15,16
 -34.8447 -136.082 -34.8447 -136.082 -27.0068 -128.244 c 128,-1,17
 -19.1689 -120.406 -19.1689 -120.406 -8.09473 -120.406 c 0,18,19
 0.163086 -120.406 0.163086 -120.406 6.96875 -125.062 c 1,20,21
 34.2969 -134.344 34.2969 -134.344 68.1553 -134.344 c 0,22,23
 86.3281 -134.344 86.3281 -134.344 95.0693 -110.927 c 128,-1,24
 103.812 -87.5107 103.812 -87.5107 103.812 -28.25 c 2,25,-1
 104 452.812 l 2,26,27
 104 463.887 104 463.887 111.838 471.725 c 128,-1,0
 119.676 479.562 119.676 479.562 130.75 479.562 c 128,-1,1
156.861 643.256 m 128,-1,29
 156.861 632.182 156.861 632.182 149.023 624.344 c 128,-1,30
 141.186 616.506 141.186 616.506 130.111 616.506 c 128,-1,31
 119.037 616.506 119.037 616.506 111.199 624.344 c 128,-1,32
 103.361 632.182 103.361 632.182 103.361 643.256 c 128,-1,33
 103.361 654.366 103.361 654.366 111.199 662.203 c 128,-1,34
 119.037 670.041 119.037 670.041 130.111 670.041 c 128,-1,35
 141.186 670.041 141.186 670.041 149.023 662.203 c 128,-1,28
 156.861 654.366 156.861 654.366 156.861 643.256 c 128,-1,29
EndSplineSet
KernsSLIFO: 75 64 0 0 28 -40 0 0 15 -100 0 0 13 -404 0 0
EndChar
StartChar: k
Encoding: 107 107 76
Width: 383
GlyphClass: 2
Flags: W
HStem: 0 21G<57.7129 68.7871>
VStem: 36.5 53.5<14.4551 220.969 290.312 659.671>
Fore
63.25 670.438 m 128,-1,1
 74.3242 670.438 74.3242 670.438 82.1621 662.6 c 128,-1,2
 90 654.762 90 654.762 90 643.688 c 2,3,-1
 90 290.312 l 1,4,-1
 309 470.844 l 2,5,6
 316.401 476.943 316.401 476.943 326.031 476.938 c 0,7,8
 338.651 476.93 338.651 476.93 346.657 467.219 c 0,9,10
 353.705 458.676 353.705 458.676 352.655 447.641 c 128,-1,11
 351.605 436.605 351.605 436.605 343.063 429.562 c 2,12,-1
 173.345 289.656 l 1,13,-1
 366.5 42.4375 l 2,14,15
 373.317 33.71 373.317 33.71 371.96 22.7021 c 128,-1,16
 370.603 11.6943 370.603 11.6943 361.875 4.875 c 128,-1,17
 353.15 -1.94434 353.15 -1.94434 342.156 -0.600586 c 128,-1,18
 331.162 0.743164 331.162 0.743164 324.345 9.46875 c 2,19,-1
 132.031 255.625 l 1,20,-1
 90 220.969 l 1,21,-1
 90 26.75 l 2,22,23
 90 15.6758 90 15.6758 82.1621 7.83789 c 128,-1,24
 74.3242 0 74.3242 0 63.25 0 c 128,-1,25
 52.1758 0 52.1758 0 44.3379 7.83789 c 128,-1,26
 36.5 15.6758 36.5 15.6758 36.5 26.75 c 2,27,-1
 36.5 643.688 l 2,28,29
 36.5 654.762 36.5 654.762 44.3379 662.6 c 128,-1,0
 52.1758 670.438 52.1758 670.438 63.25 670.438 c 128,-1,1
EndSplineSet
KernsSLIFO: 15 -74 0 0 14 -72 0 0 13 -378 0 0
EndChar
StartChar: l
Encoding: 108 108 77
Width: 149
GlyphClass: 2
Flags: W
HStem: 0 21G<72.7129 83.7871>
VStem: 51.5 53.5<14.4551 659.671>
Fore
78.25 670.438 m 128,-1,1
 89.3242 670.438 89.3242 670.438 97.1621 662.6 c 128,-1,2
 105 654.762 105 654.762 105 643.688 c 2,3,-1
 105 26.75 l 2,4,5
 105 15.6758 105 15.6758 97.1621 7.83789 c 128,-1,6
 89.3242 0 89.3242 0 78.25 0 c 128,-1,7
 67.1758 0 67.1758 0 59.3379 7.83789 c 128,-1,8
 51.5 15.6758 51.5 15.6758 51.5 26.75 c 2,9,-1
 51.5 643.688 l 2,10,11
 51.5 654.762 51.5 654.762 59.3379 662.6 c 128,-1,0
 67.1758 670.438 67.1758 670.438 78.25 670.438 c 128,-1,1
EndSplineSet
KernsSLIFO: 75 -52 0 0 15 -88 0 0 13 -392 0 0
EndChar
StartChar: m
Encoding: 109 109 78
Width: 575
GlyphClass: 2
Flags: W
HStem: 422.912 53.4316<120.796 221.325 351.551 461.768>
VStem: 36.8125 53.1875<28.3382 389.958> 262.812 57.1875<207.736 384.138> 494.812 53.1875<15.9043 372.771>
Fore
521.344 1.53125 m 128,-1,1
 510.27 1.53125 510.27 1.53125 502.432 9.36914 c 0,2,3
 493.902 17.8992 493.902 17.8992 494.594 28.2812 c 2,4,-1
 494.812 31.5625 l 1,5,-1
 494.812 324.207 l 2,6,7
 494.812 372.771 494.812 372.771 472.072 397.842 c 128,-1,8
 449.334 422.912 449.334 422.912 407.887 422.912 c 0,9,10
 359.123 422.912 359.123 422.912 339.561 399.27 c 0,11,12
 320.446 376.167 320.446 376.167 320 323.932 c 2,13,-1
 318.719 173.93 l 2,14,15
 318.635 164.14 318.635 164.14 310.264 156.33 c 0,16,17
 302.572 149.148 302.572 149.148 292.031 149.148 c 128,-1,18
 281.346 149.148 281.346 149.148 273.609 156.505 c 128,-1,19
 265.875 163.862 265.875 163.862 265.312 174.461 c 0,20,21
 265.068 188.063 265.068 188.063 264.436 239.829 c 128,-1,22
 263.803 291.595 263.803 291.595 262.812 324.84 c 0,23,24
 262.812 370.454 262.812 370.454 237.625 397.229 c 128,-1,25
 212.438 424.004 212.438 424.004 182.812 424.004 c 0,26,27
 135.107 424.004 135.107 424.004 112.553 399.384 c 128,-1,28
 90 374.764 90 374.764 90 324.117 c 2,29,-1
 90 30.0312 l 1,30,-1
 90.0625 28.2812 l 2,31,32
 90.4443 17.5918 90.4443 17.5918 82.2227 9.36914 c 0,33,34
 74.3867 1.53125 74.3867 1.53125 63.3125 1.53125 c 128,-1,35
 52.2383 1.53125 52.2383 1.53125 44.4004 9.36914 c 0,36,37
 35.2266 18.543 35.2266 18.543 36.5625 28.2812 c 0,38,39
 36.8125 30.1035 36.8125 30.1035 36.8125 31.9375 c 2,40,-1
 36.8125 323.801 l 2,41,42
 36.8125 476.625 36.8125 476.625 174.594 476.625 c 0,43,44
 212.557 476.625 212.557 476.625 248.883 457.972 c 128,-1,45
 285.207 439.317 285.207 439.317 291.406 419.047 c 1,46,47
 297.246 440.375 297.246 440.375 331.051 458.359 c 128,-1,48
 364.857 476.344 364.857 476.344 409.213 476.344 c 0,49,50
 469.305 476.344 469.305 476.344 508.652 430.267 c 128,-1,51
 548 384.189 548 384.189 548 324.469 c 2,52,-1
 548 30.5938 l 1,53,-1
 548.094 28.2812 l 2,54,55
 548.525 17.6371 548.525 17.6371 540.256 9.36914 c 0,56,0
 532.418 1.53125 532.418 1.53125 521.344 1.53125 c 128,-1,1
EndSplineSet
KernsSLIFO: 75 -52 0 0 15 -86 0 0 13 -390 0 0
EndChar
StartChar: n
Encoding: 110 110 79
Width: 413
GlyphClass: 2
Flags: W
HStem: 415.175 53.0615<147.97 272.681>
VStem: 48 53.7207<14.7051 355.16> 320 51.7207<14.7051 355.616>
Fore
212.947 468.236 m 0,0,1
 289.777 468.236 289.777 468.236 330.748 414.235 c 128,-1,2
 371.721 360.233 371.721 360.233 371.721 280 c 2,3,-1
 372.75 27 l 2,4,5
 372.75 15.9258 372.75 15.9258 364.912 8.08789 c 128,-1,6
 357.074 0.25 357.074 0.25 346 0.25 c 128,-1,7
 334.926 0.25 334.926 0.25 327.088 8.08789 c 128,-1,8
 319.25 15.9258 319.25 15.9258 319.25 27 c 0,9,10
 319.25 63.8184 319.25 63.8184 319.625 151.719 c 128,-1,11
 320 239.618 320 239.618 320 280 c 0,12,13
 320 338.166 320 338.166 289.41 376.671 c 128,-1,14
 258.82 415.175 258.82 415.175 212.617 415.175 c 0,15,16
 162.889 415.175 162.889 415.175 131.756 376.495 c 128,-1,17
 100.625 337.815 100.625 337.815 101.721 280 c 2,18,-1
 102 27 l 2,19,20
 102 15.9258 102 15.9258 94.1621 8.08789 c 128,-1,21
 86.3242 0.25 86.3242 0.25 75.25 0.25 c 0,22,23
 64.5 0.25 64.5 0.25 57.1914 7.93262 c 128,-1,24
 49.8809 15.6143 49.8809 15.6143 48.5 27 c 0,25,26
 48.5 58.6777 48.5 58.6777 48.25 140.981 c 128,-1,27
 48 223.285 48 223.285 48 280 c 0,28,29
 48 377.836 48 377.836 90.1133 422.73 c 128,-1,30
 132.227 467.625 132.227 467.625 212.947 468.236 c 0,0,1
EndSplineSet
KernsSLIFO: 75 -50 0 0 15 -84 0 0 13 -388 0 0
EndChar
StartChar: o
Encoding: 111 111 80
Width: 429
GlyphClass: 2
Flags: W
HStem: 0.28125 53.4062<97.8877 307.713> 420.656 53.4062<127.239 301.507>
VStem: 44 53.5625<78.6104 363.487> 340 53.5625<113.569 353.16>
Fore
216.5 474.062 m 0,0,1
 309.77 474.062 309.77 474.062 351.666 412.934 c 128,-1,2
 393.562 351.805 393.562 351.805 393.562 237.188 c 0,3,4
 393.562 115.052 393.562 115.052 352.908 57.666 c 128,-1,5
 312.254 0.28125 312.254 0.28125 216.5 0.28125 c 0,6,7
 125.26 0.28125 125.26 0.28125 84.6289 57.8369 c 128,-1,8
 44 115.393 44 115.393 44 238 c 0,9,10
 44 355.121 44 355.121 85.4434 414.592 c 128,-1,11
 126.889 474.062 126.889 474.062 216.5 474.062 c 0,0,1
215.875 420.656 m 0,12,13
 147.693 420.656 147.693 420.656 122.627 377.401 c 128,-1,14
 97.5625 334.146 97.5625 334.146 97.5625 236.344 c 0,15,16
 97.5625 53.6875 97.5625 53.6875 215.875 53.6875 c 0,17,18
 286.52 53.6875 286.52 53.6875 313.26 97.9854 c 128,-1,19
 340 142.284 340 142.284 340 238 c 0,20,21
 340 326.585 340 326.585 310.873 373.621 c 128,-1,22
 281.746 420.656 281.746 420.656 215.875 420.656 c 0,12,13
EndSplineSet
KernsSLIFO: 75 -46 0 0 15 -106 0 0 13 -388 0 0
EndChar
StartChar: p
Encoding: 112 112 81
Width: 415
GlyphClass: 2
Flags: W
HStem: 0 53.4062<174.026 289.355> 420.375 53.4062<125.396 329.788>
VStem: 45 53.5<-164.888 35.9375 142.166 347.329> 320.969 53.5625<115.067 389.892>
Fore
210.406 473.781 m 4,0,1
 302.238 473.781 302.238 473.781 338.385 414.185 c 132,-1,2
 374.531 354.588 374.531 354.588 374.531 236.906 c 4,3,4
 374.531 111.749 374.531 111.749 339.531 55.874 c 132,-1,5
 304.533 0 304.533 0 210.406 0 c 4,6,7
 136.463 0 136.463 0 98.5 35.9375 c 5,8,-1
 98.5 -156.438 l 5,9,-1
 98.6562 -159.156 l 6,10,11
 98.6543 -170.231 98.6543 -170.231 90.8164 -178.068 c 132,-1,12
 82.9805 -185.906 82.9805 -185.906 71.9062 -185.906 c 4,13,14
 61.0527 -185.906 61.0527 -185.906 53.2812 -178.343 c 132,-1,15
 45.5117 -170.778 45.5117 -170.778 45.1875 -159.969 c 5,16,-1
 45 218.562 l 5,17,-1
 44.9062 238.344 l 6,18,19
 44.9062 356.312 44.9062 356.312 83.2637 415.047 c 132,-1,20
 121.621 473.781 121.621 473.781 210.406 473.781 c 4,0,1
209.781 420.375 m 4,21,22
 144.869 420.375 144.869 420.375 121.67 366.392 c 132,-1,23
 98.4688 312.408 98.4688 312.408 98.4688 196.005 c 4,24,25
 98.4688 165.442 98.4688 165.442 103.988 141.321 c 132,-1,26
 109.51 117.199 109.51 117.199 116.236 102.535 c 132,-1,27
 122.965 87.8721 122.965 87.8721 135.928 77.4697 c 132,-1,28
 148.891 67.0674 148.891 67.0674 156.344 62.5615 c 132,-1,29
 163.797 58.0566 163.797 58.0566 178.697 55.7256 c 132,-1,30
 193.598 53.3945 193.598 53.3945 196.271 53.4004 c 132,-1,31
 198.945 53.4062 198.945 53.4062 209.781 53.4062 c 4,32,33
 270.992 53.4062 270.992 53.4062 295.98 98.3887 c 132,-1,34
 320.969 143.371 320.969 143.371 320.969 237.719 c 4,35,36
 320.969 420.375 320.969 420.375 209.781 420.375 c 4,21,22
EndSplineSet
KernsSLIFO: 75 -46 0 0 15 -108 0 0 13 -388 0 0
EndChar
StartChar: q
Encoding: 113 113 82
Width: 439
GlyphClass: 2
Flags: W
HStem: 0 53.4062<127.176 242.505> 420.375 53.4062<86.7434 291.136>
VStem: 42 53.5625<115.067 389.892> 318.031 53.5<-164.888 35.9375 142.166 347.329>
Fore
206.125 473.781 m 0,0,1
 294.91 473.781 294.91 473.781 333.268 415.047 c 128,-1,2
 371.625 356.312 371.625 356.312 371.625 238.344 c 2,3,-1
 371.531 218.562 l 1,4,-1
 371.344 -159.969 l 1,5,6
 371.02 -170.778 371.02 -170.778 363.25 -178.343 c 128,-1,7
 355.479 -185.906 355.479 -185.906 344.625 -185.906 c 0,8,9
 333.551 -185.906 333.551 -185.906 325.715 -178.068 c 128,-1,10
 317.877 -170.231 317.877 -170.231 317.875 -159.156 c 2,11,-1
 318.031 -156.438 l 1,12,-1
 318.031 35.9375 l 1,13,14
 280.068 0 280.068 0 206.125 0 c 0,15,16
 111.998 0 111.998 0 77 55.874 c 128,-1,17
 42 111.749 42 111.749 42 236.906 c 0,18,19
 42 354.588 42 354.588 78.1465 414.185 c 128,-1,20
 114.293 473.781 114.293 473.781 206.125 473.781 c 0,0,1
206.75 420.375 m 0,21,22
 95.5625 420.375 95.5625 420.375 95.5625 237.719 c 0,23,24
 95.5625 143.371 95.5625 143.371 120.551 98.3887 c 128,-1,25
 145.539 53.4062 145.539 53.4062 206.75 53.4062 c 0,26,27
 217.586 53.4062 217.586 53.4062 220.26 53.4004 c 128,-1,28
 222.934 53.3945 222.934 53.3945 237.834 55.7256 c 128,-1,29
 252.734 58.0566 252.734 58.0566 260.188 62.5615 c 128,-1,30
 267.641 67.0674 267.641 67.0674 280.604 77.4697 c 128,-1,31
 293.566 87.8721 293.566 87.8721 300.295 102.535 c 128,-1,32
 307.021 117.199 307.021 117.199 312.543 141.321 c 128,-1,33
 318.062 165.442 318.062 165.442 318.062 196.005 c 0,34,35
 318.062 312.408 318.062 312.408 294.861 366.392 c 128,-1,36
 271.662 420.375 271.662 420.375 206.75 420.375 c 0,21,22
EndSplineSet
KernsSLIFO: 75 66 0 0 28 -50 0 0 27 -40 0 0 15 -108 0 0 13 -412 0 0
EndChar
StartChar: r
Encoding: 114 114 83
Width: 397
GlyphClass: 2
Flags: W
HStem: 422.562 52.875<138.363 293.843>
VStem: 48 53.3125<22.9431 380.562>
Fore
214.594 475.438 m 0,0,1
 275.555 475.438 275.555 475.438 311.68 444.836 c 128,-1,2
 347.805 414.234 347.805 414.234 358.781 367.875 c 2,3,4
 362.688 361.47 362.688 361.47 362.688 353.969 c 0,5,6
 362.688 342.895 362.688 342.895 354.85 335.057 c 128,-1,7
 347.012 327.219 347.012 327.219 335.938 327.219 c 128,-1,8
 324.863 327.219 324.863 327.219 317.025 335.057 c 128,-1,9
 309.188 342.895 309.188 342.895 309.188 353.969 c 1,10,11
 285.057 422.562 285.057 422.562 214.281 422.562 c 0,12,13
 155.883 422.562 155.883 422.562 128.598 390.388 c 128,-1,14
 101.312 358.214 101.312 358.214 101.312 283.719 c 2,15,-1
 101.125 26.7188 l 2,16,17
 101.125 15.6445 101.125 15.6445 93.2871 7.80664 c 128,-1,18
 85.4492 -0.03125 85.4492 -0.03125 74.375 -0.03125 c 128,-1,19
 63.3008 -0.03125 63.3008 -0.03125 55.4629 7.80664 c 128,-1,20
 47.625 15.6445 47.625 15.6445 47.625 26.7188 c 0,21,22
 47.625 83.293 47.625 83.293 47.8125 160.358 c 128,-1,23
 48 237.424 48 237.424 48 283.719 c 0,24,25
 48 386.896 48 386.896 88.4629 431.167 c 128,-1,26
 128.926 475.438 128.926 475.438 214.594 475.438 c 0,0,1
EndSplineSet
KernsSLIFO: 75 -42 0 0 15 -338 0 0 13 -640 0 0
EndChar
StartChar: s
Encoding: 115 115 84
Width: 361
GlyphClass: 2
Flags: W
HStem: -0.125 52.2188<123.232 258.053> 215.625 52.5<111.174 229.189> 424.5 52.8125<90.1824 219.84>
VStem: 20 55.7812<288.168 421.933> 279.531 54.25<76.9464 190.109>
Fore
167.375 477.312 m 0,0,1
 223.979 477.312 223.979 477.312 253.156 463.817 c 128,-1,2
 282.332 450.322 282.332 450.322 311.709 407.063 c 1,3,4
 318.865 399.367 318.865 399.367 318.865 388.876 c 0,5,6
 318.865 377.801 318.865 377.801 311.027 369.964 c 128,-1,7
 303.189 362.126 303.189 362.126 292.115 362.126 c 0,8,9
 274.547 362.126 274.547 362.126 267.553 378.251 c 1,10,11
 250.99 401.646 250.99 401.646 229.459 413.073 c 128,-1,12
 207.928 424.5 207.928 424.5 168.219 424.5 c 0,13,14
 75.7812 424.5 75.7812 424.5 75.7812 342 c 0,15,16
 75.7812 300.591 75.7812 300.591 100.143 284.357 c 128,-1,17
 124.504 268.125 124.504 268.125 168.938 268.125 c 0,18,19
 333.781 268.125 333.781 268.125 333.781 139 c 0,20,21
 333.781 66.6914 333.781 66.6914 296.051 33.2832 c 128,-1,22
 258.32 -0.125 258.32 -0.125 173.656 -0.125 c 0,23,24
 61.5137 -0.125 61.5137 -0.125 23.8438 84.5938 c 1,25,26
 16.625 92.3291 16.625 92.3291 16.625 102.812 c 0,27,28
 16.625 113.887 16.625 113.887 24.4629 121.725 c 128,-1,29
 32.3008 129.562 32.3008 129.562 43.375 129.562 c 0,30,31
 61.291 129.562 61.291 129.562 68.125 113 c 1,32,33
 69.5723 110.913 69.5723 110.913 77.9707 97.1445 c 128,-1,34
 86.3711 83.377 86.3711 83.377 90.9355 79.2256 c 128,-1,35
 95.498 75.0752 95.498 75.0752 106.744 66.583 c 128,-1,36
 117.988 58.0908 117.988 58.0908 134.25 55.0928 c 128,-1,37
 150.514 52.0938 150.514 52.0938 173.188 52.0938 c 0,38,39
 238.469 52.0938 238.469 52.0938 259 71.6914 c 128,-1,40
 279.531 91.2881 279.531 91.2881 279.531 139.094 c 0,41,42
 279.531 178.336 279.531 178.336 247.289 196.98 c 128,-1,43
 215.047 215.625 215.047 215.625 167.906 215.625 c 0,44,45
 101.146 215.625 101.146 215.625 60.5742 245.45 c 128,-1,46
 20 275.274 20 275.274 20 338 c 0,47,48
 20 402.563 20 402.563 63.998 439.938 c 128,-1,49
 107.996 477.312 107.996 477.312 167.375 477.312 c 0,0,1
EndSplineSet
KernsSLIFO: 75 -48 0 0 15 -88 0 0 13 -386 0 0
EndChar
StartChar: t
Encoding: 116 116 85
Width: 293
GlyphClass: 2
Flags: W
HStem: -0.0136719 52.209<170 222.92> 418.625 53.5<28.2947 98.7188 152.219 260.432>
VStem: 98.9688 53.5<81.7891 418.625 472.125 636.906 636.906 654.234>
Fore
125.719 665 m 0,0,1
 137.385 665 137.385 665 144.926 658.07 c 128,-1,2
 152.469 651.14 152.469 651.14 152.469 638.25 c 2,3,-1
 152.219 472.125 l 1,4,-1
 246.812 472.125 l 2,5,6
 247.42 472.156 247.42 472.156 248.188 472.156 c 0,7,8
 259.262 472.156 259.262 472.156 267.1 464.318 c 128,-1,9
 274.938 456.48 274.938 456.48 274.938 445.406 c 0,10,11
 274.938 434.562 274.938 434.562 267.383 426.793 c 128,-1,12
 259.83 419.023 259.83 419.023 249.031 418.688 c 1,13,-1
 152.219 418.625 l 1,14,-1
 152.438 105.438 l 2,15,16
 152.438 81.7891 152.438 81.7891 164.252 66.9922 c 128,-1,17
 176.066 52.1953 176.066 52.1953 196.289 52.1953 c 0,18,19
 209.953 52.9844 209.953 52.9844 233.938 58.9951 c 128,-1,20
 257.924 65.0059 257.924 65.0059 267 66.375 c 1,21,22
 278.682 66.375 278.682 66.375 286.322 59.3691 c 128,-1,23
 293.963 52.3633 293.963 52.3633 293.75 39.625 c 0,24,25
 293.41 19.5361 293.41 19.5361 276.639 14.79 c 0,26,27
 260.209 9.72363 260.209 9.72363 240.305 5.14453 c 128,-1,28
 220.4 0.564453 220.4 0.564453 196.008 -0.0136719 c 0,29,30
 149.736 -0.314453 149.736 -0.314453 124.332 28.3877 c 128,-1,31
 98.9258 57.0889 98.9258 57.0889 98.6562 104.594 c 2,32,-1
 98.7188 418.625 l 1,33,-1
 39.125 418.625 l 2,34,35
 28.584 419.31 28.584 419.31 21.293 427.035 c 128,-1,36
 14 434.76 14 434.76 14 445.406 c 128,-1,37
 14.002 456.054 14.002 456.054 21.293 463.778 c 128,-1,38
 28.584 471.503 28.584 471.503 39.125 472.125 c 2,39,-1
 98.7188 472.125 l 1,40,-1
 98.7188 636.906 l 1,41,-1
 99 636.906 l 1,42,-1
 98.9688 638.25 l 2,43,44
 98.9707 649.325 98.9707 649.325 106.809 657.163 c 128,-1,45
 114.645 665 114.645 665 125.719 665 c 0,0,1
EndSplineSet
KernsSLIFO: 75 -40 0 0 15 -76 0 0 14 -116 0 0 13 -380 0 0
EndChar
StartChar: u
Encoding: 117 117 86
Width: 423
GlyphClass: 2
Flags: W
HStem: 0.25 53.0605<147.72 272.431>
VStem: 47.75 53.7188<113.325 461.781> 319.748 51.7188<112.872 461.781>
Fore
212.699 0.25 m 0,0,1
 131.975 0.861328 131.975 0.861328 89.8613 45.7559 c 128,-1,2
 47.75 90.6504 47.75 90.6504 47.75 188.486 c 0,3,4
 47.75 245.201 47.75 245.201 48 331.505 c 128,-1,5
 48.25 417.808 48.25 417.808 48.25 449.486 c 0,6,7
 49.6309 460.871 49.6309 460.871 56.9395 468.554 c 128,-1,8
 64.25 476.236 64.25 476.236 75 476.236 c 0,9,10
 86.0742 476.236 86.0742 476.236 93.9121 468.398 c 128,-1,11
 101.75 460.561 101.75 460.561 101.75 449.486 c 2,12,-1
 101.469 188.486 l 2,13,14
 100.375 130.67 100.375 130.67 131.506 91.9902 c 128,-1,15
 162.639 53.3105 162.639 53.3105 212.367 53.3105 c 0,16,17
 258.57 53.3105 258.57 53.3105 289.158 91.8154 c 128,-1,18
 319.748 130.321 319.748 130.321 319.748 188.486 c 0,19,20
 319.748 228.867 319.748 228.867 319.373 320.768 c 128,-1,21
 318.998 412.668 318.998 412.668 318.998 449.486 c 0,22,23
 318.998 460.561 318.998 460.561 326.838 468.398 c 128,-1,24
 334.674 476.236 334.674 476.236 345.748 476.236 c 128,-1,25
 356.822 476.236 356.822 476.236 364.662 468.398 c 128,-1,26
 372.498 460.561 372.498 460.561 372.498 449.486 c 2,27,-1
 371.467 188.486 l 2,28,29
 371.467 108.251 371.467 108.251 330.498 54.251 c 128,-1,30
 289.525 0.25 289.525 0.25 212.699 0.25 c 0,0,1
EndSplineSet
KernsSLIFO: 75 -50 0 0 15 -108 0 0 13 -392 0 0
EndChar
StartChar: v
Encoding: 118 118 87
Width: 403
GlyphClass: 2
Flags: W
VStem: 334.129 53.5<413.971 474.39>
Fore
43.8496 486.719 m 128,-1,1
 54.9238 486.719 54.9238 486.719 62.7598 478.881 c 128,-1,2
 70.5977 471.043 70.5977 471.043 70.5977 459.969 c 1,3,4
 90.7031 359.898 90.7031 359.898 137.277 216.062 c 128,-1,5
 183.852 72.2266 183.852 72.2266 197.348 70.4248 c 0,6,7
 206.02 70.3887 206.02 70.3887 239.59 151.453 c 128,-1,8
 273.156 232.518 273.156 232.518 303.641 328.372 c 128,-1,9
 334.129 424.226 334.129 424.226 334.129 458.406 c 0,10,11
 334.129 469.48 334.129 469.48 341.969 477.318 c 128,-1,12
 349.805 485.156 349.805 485.156 360.879 485.156 c 128,-1,13
 371.953 485.156 371.953 485.156 379.793 477.318 c 128,-1,14
 387.629 469.48 387.629 469.48 387.629 458.406 c 0,15,16
 387.434 397.743 387.434 397.743 352.309 286.261 c 128,-1,17
 317.184 174.778 317.184 174.778 271.074 85.9707 c 128,-1,18
 224.965 -2.83594 224.965 -2.83594 197.508 -2.87207 c 0,19,20
 169.348 -2.84082 169.348 -2.84082 135.465 62.2969 c 128,-1,21
 101.582 127.434 101.582 127.434 76.5 210.721 c 128,-1,22
 51.416 294.007 51.416 294.007 34.2598 366.811 c 128,-1,23
 17.1016 439.614 17.1016 439.614 17.0977 459.969 c 0,24,25
 17.0977 471.043 17.0977 471.043 24.9336 478.881 c 128,-1,0
 32.7754 486.719 32.7754 486.719 43.8496 486.719 c 128,-1,1
EndSplineSet
KernsSLIFO: 15 -192 0 0 13 -452 0 0
EndChar
StartChar: w
Encoding: 119 119 88
Width: 573
GlyphClass: 2
Flags: W
HStem: 0.125 53.4326<120.229 230.452 360.675 461.202>
VStem: 34 53.1875<103.697 460.482> 262 57.1875<92.3301 274.737> 492 53.1875<86.5121 460.482>
Fore
60.6562 474.938 m 128,-1,1
 71.7305 474.938 71.7305 474.938 79.5664 467.1 c 128,-1,2
 87.4062 459.262 87.4062 459.262 87.4062 448.188 c 2,3,-1
 87.1875 444.906 l 1,4,-1
 87.1875 152.262 l 2,5,6
 87.1875 103.697 87.1875 103.697 109.926 78.6279 c 128,-1,7
 132.664 53.5576 132.664 53.5576 174.113 53.5576 c 0,8,9
 222.875 53.5576 222.875 53.5576 242.438 77.2012 c 128,-1,10
 262 100.845 262 100.845 262 152.537 c 2,11,-1
 263.062 208.22 l 1,12,-1
 263.281 267.094 l 2,13,14
 264.043 277.511 264.043 277.511 271.738 284.693 c 128,-1,15
 279.43 291.875 279.43 291.875 289.969 291.875 c 128,-1,16
 300.656 291.875 300.656 291.875 308.391 284.519 c 128,-1,17
 316.125 277.162 316.125 277.162 316.688 266.562 c 0,18,19
 318.09 188.408 318.09 188.408 319.188 151.63 c 0,20,21
 319.188 106.015 319.188 106.015 344.375 79.2393 c 128,-1,22
 369.562 52.4648 369.562 52.4648 399.188 52.4648 c 0,23,24
 446.891 52.4648 446.891 52.4648 469.445 77.085 c 128,-1,25
 492 101.706 492 101.706 492 152.353 c 2,26,-1
 492 446.438 l 1,27,-1
 491.938 448.188 l 2,28,29
 491.938 459.263 491.938 459.263 499.777 467.101 c 128,-1,30
 507.613 474.938 507.613 474.938 518.688 474.938 c 128,-1,31
 529.762 474.938 529.762 474.938 537.598 467.1 c 128,-1,32
 545.438 459.262 545.438 459.262 545.438 448.188 c 2,33,-1
 545.188 444.531 l 1,34,-1
 545.188 152.668 l 2,35,36
 545.188 -0.15625 545.188 -0.15625 407.406 -0.15625 c 0,37,38
 369.441 -0.15625 369.441 -0.15625 333.117 18.4971 c 128,-1,39
 296.793 37.1514 296.793 37.1514 290.594 57.4219 c 1,40,41
 284.754 36.0938 284.754 36.0938 250.949 18.1094 c 128,-1,42
 217.145 0.125 217.145 0.125 172.785 0.125 c 0,43,44
 112.695 0.125 112.695 0.125 73.3477 46.2021 c 128,-1,45
 34 92.2803 34 92.2803 34 152 c 2,46,-1
 34 445.875 l 1,47,-1
 33.9062 448.188 l 2,48,49
 33.9062 459.262 33.9062 459.262 41.7422 467.1 c 128,-1,0
 49.582 474.938 49.582 474.938 60.6562 474.938 c 128,-1,1
EndSplineSet
KernsSLIFO: 75 -52 0 0 15 -100 0 0 13 -392 0 0
EndChar
StartChar: x
Encoding: 120 120 89
Width: 443
GlyphClass: 2
Flags: W
HStem: -1.25 486.062<37.3848 71.4176 50.125 51.7812>
VStem: 23.375 361.531<447.382 472.459 458.062 458.062>
Fore
50.125 484.812 m 0,0,1
 66.5039 484.812 66.5039 484.812 73.9688 470.219 c 1,2,-1
 203.938 286.344 l 1,3,-1
 334.562 470.688 l 1,4,-1
 334.625 470.812 l 2,5,6
 336.086 473.502 336.086 473.502 338.281 475.938 c 0,7,8
 346.281 484.812 346.281 484.812 358.156 484.812 c 0,9,10
 369.23 484.812 369.23 484.812 377.066 476.975 c 128,-1,11
 384.906 469.137 384.906 469.137 384.906 458.062 c 0,12,13
 384.906 449.847 384.906 449.847 380.344 443.094 c 0,14,15
 380.129 442.777 380.129 442.777 379.594 442.062 c 2,16,-1
 236.531 240.219 l 1,17,-1
 374.156 45.5 l 1,18,19
 381.625 37.7168 381.625 37.7168 381.625 27 c 0,20,21
 381.625 15.9258 381.625 15.9258 373.785 8.08789 c 128,-1,22
 365.949 0.25 365.949 0.25 354.875 0.25 c 0,23,24
 338.68 0.25 338.68 0.25 331.156 14.5938 c 2,25,-1
 204 194.375 l 1,26,-1
 75.3125 12.8125 l 2,27,28
 67.6562 -1.25 67.6562 -1.25 51.7812 -1.25 c 0,29,30
 40.707 -1.25 40.707 -1.25 32.8672 6.58789 c 128,-1,31
 25.0312 14.4258 25.0312 14.4258 25.0312 25.5 c 0,32,33
 25.0312 35.3037 25.0312 35.3037 31.3125 42.75 c 2,34,-1
 171.406 240.438 l 1,35,-1
 29.625 440.906 l 2,36,37
 23.375 448.379 23.375 448.379 23.375 458.062 c 0,38,39
 23.375 469.137 23.375 469.137 31.2109 476.975 c 128,-1,40
 39.0508 484.812 39.0508 484.812 50.125 484.812 c 0,0,1
EndSplineSet
KernsSLIFO: 75 -44 0 0 15 -80 0 0 14 -88 0 0 13 -384 0 0
EndChar
StartChar: y
Encoding: 121 121 90
Width: 411
GlyphClass: 2
Flags: W
HStem: -184 54.4062<155.039 197.969> 2.34375 57.0625<144.865 284.412> 457 20G<345.275 356.209>
VStem: 48 53.7188<121.009 448.247> 324.062 53.5<-23.9753 48.9062 141.098 464.994>
Fore
350.812 477 m 0,0,1
 361.605 477 361.605 477 368.988 469.296 c 128,-1,2
 376.367 461.592 376.367 461.592 377.562 450.25 c 2,3,-1
 377.719 30 l 2,4,5
 377.719 -71.4854 377.719 -71.4854 333.551 -127.743 c 128,-1,6
 289.383 -184 289.383 -184 196.906 -184 c 0,7,8
 179.617 -184 179.617 -184 164.219 -180.938 c 0,9,10
 101.613 -172.184 101.613 -172.184 58.0625 -131.906 c 1,11,12
 46.5 -123.922 46.5 -123.922 46.5 -109.875 c 0,13,14
 46.5 -98.8008 46.5 -98.8008 54.3359 -90.9629 c 128,-1,15
 62.1758 -83.125 62.1758 -83.125 73.25 -83.125 c 0,16,17
 83.9883 -83.125 83.9883 -83.125 91.75 -90.5625 c 0,18,19
 100.227 -97.8184 100.227 -97.8184 110.621 -104.798 c 128,-1,20
 121.016 -111.777 121.016 -111.777 131.66 -117.287 c 128,-1,21
 142.305 -122.798 142.305 -122.798 159.324 -126.195 c 128,-1,22
 176.344 -129.594 176.344 -129.594 197.969 -129.594 c 1,23,-1
 198.062 -129.844 l 1,24,25
 227.875 -129.844 227.875 -129.844 249.25 -122.309 c 128,-1,26
 270.625 -114.774 270.625 -114.774 288.375 -95.8174 c 128,-1,27
 306.121 -76.8604 306.121 -76.8604 315.062 -40.7334 c 128,-1,28
 324 -4.60547 324 -4.60547 324 48.9062 c 1,29,30
 287.641 2.34375 287.641 2.34375 214.156 2.34375 c 0,31,32
 131.191 2.72656 131.191 2.72656 89.5977 56.2178 c 128,-1,33
 48 109.708 48 109.708 48 198.562 c 2,34,-1
 48.25 449.25 l 2,35,36
 48.25 460.324 48.25 460.324 56.0859 468.162 c 128,-1,37
 63.9258 476 63.9258 476 75 476 c 128,-1,38
 86.0742 476 86.0742 476 93.9102 468.162 c 128,-1,39
 101.75 460.324 101.75 460.324 101.75 449.25 c 2,40,-1
 101.719 201.188 l 2,41,42
 101.719 139.512 101.719 139.512 131.262 99.459 c 128,-1,43
 160.805 59.4062 160.805 59.4062 213.938 59.4062 c 0,44,45
 268.148 59.4062 268.148 59.4062 297.664 94.415 c 128,-1,46
 327.176 129.424 327.176 129.424 324 192 c 2,47,-1
 324.062 450.25 l 2,48,49
 324.062 461.324 324.062 461.324 331.898 469.162 c 128,-1,50
 339.738 477 339.738 477 350.812 477 c 0,0,1
EndSplineSet
KernsSLIFO: 75 64 0 0 15 -92 0 0 13 -396 0 0
EndChar
StartChar: z
Encoding: 122 122 91
Width: 381
GlyphClass: 2
Flags: W
HStem: 0.25 53.5<100 341.344> 414.406 53.5<38.7104 276.656>
Fore
50.5 467.906 m 0,0,-1
 329 467.906 l 2,1,2
 339.238 466.825 339.238 466.825 346.246 459.187 c 128,-1,3
 353.25 451.549 353.25 451.549 353.25 441.156 c 128,-1,4
 353.25 430.626 353.25 430.626 346.031 422.906 c 1,5,-1
 100 53.75 l 1,6,-1
 328.938 53.75 l 2,7,8
 340.18 53.6484 340.18 53.6484 347.934 45.8281 c 128,-1,9
 355.688 38.0068 355.688 38.0068 355.688 27 c 128,-1,10
 355.691 15.9941 355.691 15.9941 347.938 8.17285 c 128,-1,11
 340.18 0.351562 340.18 0.351562 329.188 0.25 c 0,12,-1
 50.375 0.25 l 2,13,14
 39.3008 0.25 39.3008 0.25 31.4648 8.08789 c 128,-1,15
 23.625 15.9258 23.625 15.9258 23.625 27 c 0,16,17
 23.625 34.3086 23.625 34.3086 27.3438 40.5938 c 1,18,-1
 27.5 40.875 l 2,19,20
 27.7695 41.3154 27.7695 41.3154 28.1875 41.9375 c 2,21,-1
 276.656 414.406 l 1,22,-1
 51.0625 414.406 l 1,23,-1
 50.5 414.438 l 2,24,25
 39.6055 414.659 39.6055 414.659 31.9609 422.445 c 128,-1,26
 24.3125 430.232 24.3125 430.232 24.3125 441.156 c 128,-1,27
 24.3125 452.083 24.3125 452.083 31.9609 459.884 c 128,-1,28
 39.6094 467.686 39.6094 467.686 50.5 467.906 c 0,0,-1
EndSplineSet
KernsSLIFO: 75 -42 0 0 15 -98 0 0 14 -76 0 0 13 -400 0 0
EndChar
StartChar: braceleft
Encoding: 123 123 92
Width: 409
GlyphClass: 2
Flags: W
HStem: 2 53.5625<192.5 313.296> 322.938 52.8438<48.2675 125.031> 646.188 53.5<177.747 317.609>
VStem: 138 54.5<55.5625 280.893 442.471 646.625>
Fore
192.34 700 m 6,0,-1
 301.625 699.688 l 6,1,2
 312.699 699.688 312.699 699.688 320.539 691.85 c 132,-1,3
 328.375 684.012 328.375 684.012 328.375 672.938 c 132,-1,4
 328.375 661.862 328.375 661.862 320.539 654.024 c 132,-1,5
 312.699 646.188 312.699 646.188 301.625 646.188 c 4,6,7
 283.789 646.188 283.789 646.188 243.035 646.406 c 132,-1,8
 202.281 646.625 202.281 646.625 192.5 646.625 c 5,9,-1
 192.5 496 l 6,10,11
 191.383 460.193 191.383 460.193 189.809 441.895 c 132,-1,12
 188.238 423.595 188.238 423.595 179.051 395.757 c 132,-1,13
 169.859 367.919 169.859 367.919 152.5 350 c 5,14,15
 166.375 336.468 166.375 336.468 174.773 320.861 c 132,-1,16
 183.168 305.255 183.168 305.255 186.676 282.019 c 132,-1,17
 190.18 258.781 190.18 258.781 190.934 246.892 c 132,-1,18
 191.688 235.001 191.688 235.001 192.5 204 c 6,19,-1
 192.5 55.5625 l 5,20,-1
 301 55.5312 l 6,21,22
 312.074 55.5312 312.074 55.5312 319.914 47.6934 c 132,-1,23
 327.75 39.8555 327.75 39.8555 327.75 28.7812 c 132,-1,24
 327.75 17.707 327.75 17.707 319.914 9.86914 c 132,-1,25
 312.074 2.03125 312.074 2.03125 301 2.03125 c 4,26,27
 280.008 2.03125 280.008 2.03125 239.617 2.01562 c 132,-1,28
 199.227 2 199.227 2 192.996 2 c 4,29,30
 163.621 2 163.621 2 151.812 14.2764 c 132,-1,31
 140 26.5527 140 26.5527 140 54.9922 c 6,32,-1
 140 204 l 6,33,34
 140 268.31 140 268.31 127.781 295.623 c 132,-1,35
 115.562 322.938 115.562 322.938 84 322.938 c 4,36,37
 80.082 322.938 80.082 322.938 73.7305 322.766 c 132,-1,38
 67.3828 322.594 67.3828 322.594 64.25 322.594 c 4,39,40
 53.1758 322.594 53.1758 322.594 45.3398 330.432 c 132,-1,41
 37.5 338.27 37.5 338.27 37.5 349.344 c 132,-1,42
 37.5 360.418 37.5 360.418 45.3398 368.256 c 132,-1,43
 53.1758 376.094 53.1758 376.094 64.25 376.094 c 4,44,45
 73.5195 375.781 73.5195 375.781 84 375.781 c 4,46,47
 140 375.781 140 375.781 140 496 c 6,48,-1
 138 647.995 l 6,49,50
 138 675.692 138 675.692 150.609 687.847 c 132,-1,51
 163.215 700 163.215 700 192.34 700 c 6,0,-1
EndSplineSet
EndChar
StartChar: bar
Encoding: 124 124 93
Width: 325
GlyphClass: 2
Flags: W
VStem: 138 53.5<-145.61 755.331>
Fore
164.75 766.098 m 128,-1,1
 175.824 766.098 175.824 766.098 183.66 758.26 c 128,-1,2
 191.5 750.423 191.5 750.423 191.5 739.348 c 2,3,-1
 191.5 -133.315 l 2,4,5
 191.5 -144.39 191.5 -144.39 183.66 -152.228 c 128,-1,6
 175.824 -160.065 175.824 -160.065 164.75 -160.065 c 128,-1,7
 153.676 -160.065 153.676 -160.065 145.836 -152.228 c 128,-1,8
 138 -144.39 138 -144.39 138 -133.315 c 2,9,-1
 138 739.348 l 2,10,11
 138 750.422 138 750.422 145.836 758.26 c 128,-1,0
 153.676 766.098 153.676 766.098 164.75 766.098 c 128,-1,1
EndSplineSet
EndChar
StartChar: braceright
Encoding: 125 125 94
Width: 441
GlyphClass: 2
Flags: W
HStem: 2.03125 53.5<58.0156 182.5> 322.938 52.8438<249.969 326.732> 646.188 53.5<57.3906 197.253>
VStem: 182.5 54.5<55.5625 280.893 442.471 646.625>
Fore
182.66 700 m 2,0,1
 211.785 700 211.785 700 224.391 687.847 c 128,-1,2
 237 675.692 237 675.692 237 647.995 c 2,3,-1
 235 496 l 2,4,5
 235 375.781 235 375.781 291 375.781 c 0,6,7
 301.48 375.781 301.48 375.781 310.75 376.094 c 0,8,9
 321.824 376.094 321.824 376.094 329.66 368.256 c 128,-1,10
 337.5 360.418 337.5 360.418 337.5 349.344 c 128,-1,11
 337.5 338.27 337.5 338.27 329.66 330.432 c 128,-1,12
 321.824 322.594 321.824 322.594 310.75 322.594 c 0,13,14
 307.617 322.594 307.617 322.594 301.27 322.766 c 128,-1,15
 294.918 322.938 294.918 322.938 291 322.938 c 0,16,17
 259.438 322.938 259.438 322.938 247.219 295.623 c 128,-1,18
 235 268.31 235 268.31 235 204 c 2,19,-1
 235 54.9922 l 2,20,21
 235 26.5527 235 26.5527 223.188 14.2764 c 128,-1,22
 211.379 2 211.379 2 182.004 2 c 0,23,24
 175.773 2 175.773 2 135.383 2.01562 c 128,-1,25
 94.9922 2.03125 94.9922 2.03125 74 2.03125 c 0,26,27
 62.9258 2.03125 62.9258 2.03125 55.0859 9.86914 c 128,-1,28
 47.25 17.707 47.25 17.707 47.25 28.7812 c 128,-1,29
 47.25 39.8555 47.25 39.8555 55.0859 47.6934 c 128,-1,30
 62.9258 55.5312 62.9258 55.5312 74 55.5312 c 2,31,-1
 182.5 55.5625 l 1,32,-1
 182.5 204 l 2,33,34
 183.312 235.001 183.312 235.001 184.066 246.892 c 128,-1,35
 184.82 258.781 184.82 258.781 188.324 282.019 c 128,-1,36
 191.832 305.255 191.832 305.255 200.227 320.861 c 128,-1,37
 208.625 336.468 208.625 336.468 222.5 350 c 1,38,39
 205.141 367.919 205.141 367.919 195.949 395.757 c 128,-1,40
 186.762 423.595 186.762 423.595 185.191 441.895 c 128,-1,41
 183.617 460.193 183.617 460.193 182.5 496 c 2,42,-1
 182.5 646.625 l 1,43,44
 172.719 646.625 172.719 646.625 131.965 646.406 c 128,-1,45
 91.2109 646.188 91.2109 646.188 73.375 646.188 c 0,46,47
 62.3008 646.188 62.3008 646.188 54.4609 654.024 c 128,-1,48
 46.625 661.862 46.625 661.862 46.625 672.938 c 128,-1,49
 46.625 684.012 46.625 684.012 54.4609 691.85 c 128,-1,50
 62.3008 699.688 62.3008 699.688 73.375 699.688 c 2,51,-1
 182.66 700 l 2,0,1
EndSplineSet
EndChar
StartChar: brokenbar
Encoding: 166 166 95
Width: 109
GlyphClass: 2
Flags: W
VStem: 29 53.5<16.5689 271.984 386.562 642.947>
Fore
55.75 284.021 m 128,-1,1
 66.8242 284.021 66.8242 284.021 76.0527 274.794 c 0,2,3
 82.5 265 82.5 265 82.5 257.271 c 2,4,-1
 82.5 28.8643 l 2,5,6
 82.5 17.7891 82.5 17.7891 74.6641 9.95215 c 128,-1,7
 66.8242 2.11426 66.8242 2.11426 55.75 2.11426 c 128,-1,8
 44.6758 2.11426 44.6758 2.11426 36.8398 9.95215 c 128,-1,9
 29 17.7891 29 17.7891 29 28.8643 c 2,10,-1
 29 257.271 l 2,11,12
 29 268.346 29 268.346 36.8398 276.184 c 128,-1,0
 44.6758 284.021 44.6758 284.021 55.75 284.021 c 128,-1,1
55.75 653.714 m 128,-1,14
 66.8242 653.714 66.8242 653.714 74.6641 645.876 c 128,-1,15
 82.5 638.038 82.5 638.038 82.5 626.964 c 2,16,-1
 82.5 398.857 l 2,17,18
 82.5 387.783 82.5 387.783 74.6641 379.945 c 128,-1,19
 66.8242 372.107 66.8242 372.107 55.75 372.107 c 128,-1,20
 44.6758 372.107 44.6758 372.107 36.8398 379.945 c 128,-1,21
 29 387.783 29 387.783 29 398.857 c 2,22,-1
 29 626.964 l 2,23,24
 29 638.038 29 638.038 36.8398 645.876 c 128,-1,13
 44.6758 653.714 44.6758 653.714 55.75 653.714 c 128,-1,14
EndSplineSet
EndChar
StartChar: questiondown
Encoding: 191 191 96
Width: 503
GlyphClass: 2
Flags: W
HStem: -11.4541 52.1758<169.634 305.046> 642.376 53.5352<294.897 326.864>
VStem: 41.126 51.374<79.6976 190.939> 283.126 53.374<333.793 454.623 653.138 685.145> 371.126 53.8125<101.991 135.113>
Fore
424.938 120.421 m 0,0,1
 424.075 76.5771 424.075 76.5771 393.435 44.5703 c 128,-1,2
 362.794 12.5635 362.794 12.5635 322.021 -0.583008 c 128,-1,3
 281.246 -13.7285 281.246 -13.7285 240.747 -11.4541 c 0,4,5
 46.1055 -1.90234 46.1055 -1.90234 41.126 142.247 c 0,6,7
 41.126 179.702 41.126 179.702 51.2119 208.592 c 128,-1,8
 61.2979 237.48 61.2979 237.48 76.585 254.718 c 128,-1,9
 91.873 271.955 91.873 271.955 114.354 283.704 c 128,-1,10
 136.835 295.453 136.835 295.453 157.043 300.406 c 128,-1,11
 177.251 305.359 177.251 305.359 201.759 307.903 c 0,12,13
 243.024 311.587 243.024 311.587 263.247 328.546 c 128,-1,14
 283.471 345.505 283.471 345.505 283.126 384.546 c 2,15,-1
 284.126 463.577 l 2,16,17
 284.125 474.651 284.125 474.651 291.963 482.489 c 128,-1,18
 299.801 490.327 299.801 490.327 310.876 490.327 c 128,-1,19
 321.949 490.327 321.949 490.327 329.787 482.489 c 128,-1,20
 337.625 474.651 337.625 474.651 337.626 463.577 c 0,21,22
 337.626 448.416 337.626 448.416 337.063 423.595 c 128,-1,23
 336.5 398.772 336.5 398.772 336.5 384.546 c 0,24,25
 336.5 336.037 336.5 336.037 298.21 296.847 c 128,-1,26
 259.92 257.656 259.92 257.656 199.822 255.733 c 0,27,28
 145.297 255.733 145.297 255.733 119.39 221.617 c 128,-1,29
 93.4834 187.502 93.4834 187.502 92.5 142.5 c 0,30,31
 95.4912 94.1904 95.4912 94.1904 141.313 66.6143 c 128,-1,32
 187.135 39.0381 187.135 39.0381 245.472 40.7217 c 0,33,34
 308.533 40.7217 308.533 40.7217 335.401 62.1055 c 128,-1,35
 362.269 83.4893 362.269 83.4893 371.126 116.546 c 1,36,37
 371.296 129.237 371.296 129.237 378.458 137.879 c 128,-1,38
 385.619 146.521 385.619 146.521 398.188 147.171 c 0,39,40
 409.263 147.171 409.263 147.171 417.101 139.333 c 128,-1,41
 424.938 131.495 424.938 131.495 424.938 120.421 c 0,0,1
284.131 669.161 m 128,-1,43
 284.131 680.235 284.131 680.235 291.969 688.073 c 128,-1,44
 299.807 695.911 299.807 695.911 310.881 695.911 c 128,-1,45
 321.955 695.911 321.955 695.911 329.793 688.073 c 128,-1,46
 337.631 680.235 337.631 680.235 337.631 669.161 c 128,-1,47
 337.631 658.051 337.631 658.051 329.793 650.214 c 128,-1,48
 321.955 642.376 321.955 642.376 310.881 642.376 c 128,-1,49
 299.807 642.376 299.807 642.376 291.969 650.214 c 128,-1,42
 284.131 658.051 284.131 658.051 284.131 669.161 c 128,-1,43
EndSplineSet
EndChar
StartChar: asciitilde
Encoding: 126 126 97
Width: 498
Flags: W
TeX: 0 0 0 0
Fore
181.157 666.241 m 0,0,1
 209.035 666.241 209.035 666.241 226.232 649.654 c 128,-1,2
 243.429 633.067 243.429 633.067 248.713 613.163 c 128,-1,3
 253.998 593.259 253.998 593.259 262.385 576.672 c 128,-1,4
 270.772 560.085 270.772 560.085 283.157 560.085 c 0,5,6
 303.084 560.085 303.084 560.085 310.535 575.938 c 128,-1,7
 317.986 591.79 317.986 591.79 317.75 625.491 c 0,8,9
 317.749 636.565 317.749 636.565 325.588 644.403 c 128,-1,10
 333.426 652.241 333.426 652.241 344.5 652.241 c 128,-1,11
 355.574 652.241 355.574 652.241 363.412 644.403 c 128,-1,12
 371.25 636.566 371.25 636.566 371.25 625.491 c 0,13,14
 371.25 558.373 371.25 558.373 350.955 532.697 c 128,-1,15
 330.66 507.022 330.66 507.022 283.5 507.022 c 0,16,17
 254.021 507.022 254.021 507.022 236.219 523.609 c 128,-1,18
 218.415 540.196 218.415 540.196 213.391 560.101 c 128,-1,19
 208.366 580.005 208.366 580.005 200.549 596.592 c 128,-1,20
 192.73 613.179 192.73 613.179 180.813 613.179 c 0,21,22
 158.145 613.179 158.145 613.179 152.041 595.477 c 0,23,24
 149.923 589.334 149.923 589.334 145.938 535.991 c 0,25,26
 145.155 525.506 145.155 525.506 137.453 518.264 c 128,-1,27
 129.75 511.022 129.75 511.022 119.157 511.022 c 1,28,29
 95.6152 514.668 95.6152 514.668 92.2197 535.991 c 1,30,31
 92.2197 609.341 92.2197 609.341 113.04 637.791 c 128,-1,32
 133.86 666.241 133.86 666.241 181.157 666.241 c 0,0,1
EndSplineSet
EndChar
StartChar: acute
Encoding: 180 180 98
Width: 498
Flags: W
TeX: 0 0 0 0
Fore
313.723 676.482 m 128,-1,1
 320.234 667.521 320.234 667.521 318.5 656.574 c 128,-1,2
 316.766 645.628 316.766 645.628 307.805 639.118 c 2,3,-1
 122.164 507.864 l 2,4,5
 113.206 501.354 113.206 501.354 102.258 503.089 c 128,-1,6
 91.3096 504.822 91.3096 504.822 84.8008 513.782 c 128,-1,7
 78.2891 522.742 78.2891 522.742 80.0234 533.689 c 128,-1,8
 81.7578 544.636 81.7578 544.636 90.7188 551.146 c 2,9,-1
 276.359 682.4 l 2,10,11
 285.317 688.91 285.317 688.91 296.266 687.176 c 128,-1,0
 307.214 685.442 307.214 685.442 313.723 676.482 c 128,-1,1
EndSplineSet
EndChar
StartChar: dieresis
Encoding: 168 168 99
Width: 498
Flags: W
TeX: 0 0 0 0
Fore
120 643.002 m 128,-1,1
 120 631.928 120 631.928 112.162 624.09 c 128,-1,2
 104.324 616.252 104.324 616.252 93.25 616.252 c 128,-1,3
 82.1758 616.252 82.1758 616.252 74.3379 624.09 c 128,-1,4
 66.5 631.928 66.5 631.928 66.5 643.002 c 128,-1,5
 66.5 654.112 66.5 654.112 74.3379 661.95 c 128,-1,6
 82.1758 669.788 82.1758 669.788 93.25 669.788 c 128,-1,7
 104.324 669.788 104.324 669.788 112.162 661.95 c 128,-1,0
 120 654.112 120 654.112 120 643.002 c 128,-1,1
297.609 643.256 m 128,-1,9
 297.609 632.182 297.609 632.182 289.771 624.344 c 128,-1,10
 281.934 616.506 281.934 616.506 270.859 616.506 c 128,-1,11
 259.785 616.506 259.785 616.506 251.947 624.344 c 128,-1,12
 244.109 632.182 244.109 632.182 244.109 643.256 c 128,-1,13
 244.109 654.366 244.109 654.366 251.947 662.203 c 128,-1,14
 259.785 670.041 259.785 670.041 270.859 670.041 c 128,-1,15
 281.934 670.041 281.934 670.041 289.771 662.203 c 128,-1,8
 297.609 654.366 297.609 654.366 297.609 643.256 c 128,-1,9
EndSplineSet
EndChar
StartChar: tilde
Encoding: 732 732 100
Width: 455
Flags: W
TeX: 0 0 0 0
Fore
173.938 666.805 m 4,0,1
 201.815 666.805 201.815 666.805 219.013 650.218 c 132,-1,2
 236.209 633.631 236.209 633.631 241.493 613.727 c 132,-1,3
 246.778 593.822 246.778 593.822 255.165 577.235 c 132,-1,4
 263.553 560.648 263.553 560.648 275.938 560.648 c 4,5,6
 295.864 560.648 295.864 560.648 303.315 576.501 c 132,-1,7
 310.767 592.354 310.767 592.354 310.53 626.055 c 4,8,9
 310.529 637.129 310.529 637.129 318.368 644.967 c 132,-1,10
 326.206 652.805 326.206 652.805 337.28 652.805 c 132,-1,11
 348.354 652.805 348.354 652.805 356.192 644.967 c 132,-1,12
 364.03 637.13 364.03 637.13 364.03 626.055 c 4,13,14
 364.03 558.938 364.03 558.938 343.735 533.261 c 132,-1,15
 323.44 507.586 323.44 507.586 276.28 507.586 c 4,16,17
 246.802 507.586 246.802 507.586 228.999 524.173 c 132,-1,18
 211.195 540.76 211.195 540.76 206.171 560.664 c 132,-1,19
 201.146 580.568 201.146 580.568 193.329 597.155 c 132,-1,20
 185.511 613.742 185.511 613.742 173.594 613.742 c 4,21,22
 150.925 613.742 150.925 613.742 144.821 596.04 c 132,-1,23
 138.719 578.338 138.719 578.338 138.719 536.555 c 4,24,25
 137.936 526.069 137.936 526.069 130.233 518.827 c 132,-1,26
 122.53 511.586 122.53 511.586 111.938 511.586 c 5,27,28
 88.3955 515.231 88.3955 515.231 85 536.555 c 5,29,30
 85 609.904 85 609.904 105.82 638.354 c 132,-1,31
 126.641 666.805 126.641 666.805 173.938 666.805 c 4,0,1
EndSplineSet
EndChar
StartChar: breve
Encoding: 728 728 101
Width: 338
Flags: W
TeX: 0 0 0 0
Fore
77.3438 627.563 m 128,-1,1
 87.9375 627.563 87.9375 627.563 95.6396 620.322 c 128,-1,2
 103.341 613.081 103.341 613.081 104.03 602.595 c 0,3,4
 104.125 531.407 104.125 531.407 155 531.407 c 0,5,6
 210.08 531.407 210.08 531.407 209.594 600.813 c 0,7,8
 209.593 611.888 209.593 611.888 217.431 619.726 c 128,-1,9
 225.269 627.563 225.269 627.563 236.344 627.563 c 128,-1,10
 247.418 627.563 247.418 627.563 255.256 619.726 c 128,-1,11
 263.094 611.888 263.094 611.888 263.094 600.813 c 0,12,13
 263.094 542.297 263.094 542.297 233.001 510.321 c 128,-1,14
 202.907 478.345 202.907 478.345 155.344 478.345 c 0,15,16
 108.111 478.345 108.111 478.345 79.2588 510.624 c 128,-1,17
 50.4053 542.902 50.4053 542.902 50.4053 602.595 c 0,18,19
 51.3447 613.081 51.3447 613.081 59.0469 620.322 c 128,-1,0
 66.749 627.563 66.749 627.563 77.3438 627.563 c 128,-1,1
EndSplineSet
EndChar
StartChar: dotaccent
Encoding: 729 729 102
Width: 241
Flags: W
TeX: 0 0 0 0
Fore
129 600.819 m 128,-1,1
 129 589.745 129 589.745 121.162 581.907 c 128,-1,2
 113.324 574.069 113.324 574.069 102.25 574.069 c 128,-1,3
 91.1758 574.069 91.1758 574.069 83.3379 581.907 c 128,-1,4
 75.5 589.745 75.5 589.745 75.5 600.819 c 128,-1,5
 75.5 611.93 75.5 611.93 83.3379 619.767 c 128,-1,6
 91.1758 627.604 91.1758 627.604 102.25 627.604 c 128,-1,7
 113.324 627.604 113.324 627.604 121.162 619.767 c 128,-1,0
 129 611.93 129 611.93 129 600.819 c 128,-1,1
EndSplineSet
EndChar
StartChar: ring
Encoding: 730 730 103
Width: 323
Flags: W
TeX: 0 0 0 0
Fore
155.625 699.563 m 0,0,1
 202.052 699.563 202.052 699.563 233.354 667.155 c 128,-1,2
 264.657 634.748 264.657 634.748 263 588.938 c 0,3,4
 263 542.631 263 542.631 232.146 510.827 c 128,-1,5
 201.292 479.024 201.292 479.024 155.625 478.345 c 0,6,7
 111.391 478.345 111.391 478.345 81.2578 509.316 c 128,-1,8
 51.125 540.288 51.125 540.288 51.125 588.938 c 0,9,10
 51.125 638.633 51.125 638.633 79.7559 668.312 c 128,-1,11
 108.387 697.991 108.387 697.991 155.625 699.563 c 0,0,1
155.28 646.501 m 0,12,13
 109.726 646.501 109.726 646.501 104.938 588.938 c 1,14,15
 109.734 531.407 109.734 531.407 155.28 531.407 c 0,16,17
 205.464 531.407 205.464 531.407 209.5 588.938 c 0,18,19
 205.475 646.501 205.475 646.501 155.28 646.501 c 0,12,13
EndSplineSet
EndChar
StartChar: circumflex
Encoding: 710 710 104
Width: 420
Flags: W
TeX: 0 0 0 0
Fore
208.063 672.626 m 4,0,1
 208.429 672.639 208.429 672.639 209.344 672.626 c 4,2,3
 221.467 672.777 221.467 672.777 229.531 664.126 c 6,4,-1
 337.094 548.812 l 6,5,6
 344.648 540.715 344.648 540.715 344.265 529.634 c 132,-1,7
 343.881 518.554 343.881 518.554 335.781 511.001 c 132,-1,8
 327.685 503.447 327.685 503.447 316.603 503.831 c 132,-1,9
 305.521 504.215 305.521 504.215 297.969 512.312 c 6,10,-1
 209.5 607.188 l 5,11,-1
 121 512.312 l 6,12,13
 113.448 504.215 113.448 504.215 102.383 503.831 c 132,-1,14
 91.3174 503.447 91.3174 503.447 83.2188 511.001 c 132,-1,15
 75.1162 518.557 75.1162 518.557 74.7197 529.634 c 132,-1,16
 74.3232 540.712 74.3232 540.712 81.875 548.812 c 6,17,-1
 189.438 664.126 l 6,18,19
 197.002 672.239 197.002 672.239 208.063 672.626 c 4,0,1
EndSplineSet
EndChar
StartChar: ogonek
Encoding: 731 731 105
Width: 229
Flags: W
TeX: 0 0 0 0
Fore
178.5 -129.655 m 128,-1,1
 178.5 -140.25 178.5 -140.25 171.259 -147.952 c 128,-1,2
 164.018 -155.654 164.018 -155.654 153.531 -156.344 c 1,3,-1
 153.531 -156.594 l 1,4,5
 93.8379 -156.594 93.8379 -156.594 61.5596 -127.741 c 128,-1,6
 29.2812 -98.8887 29.2812 -98.8887 29.2812 -51.6553 c 0,7,8
 29.2812 -4.0918 29.2812 -4.0918 61.2578 26.001 c 128,-1,9
 93.2344 56.0947 93.2344 56.0947 151.75 56.0947 c 0,10,11
 162.824 56.0947 162.824 56.0947 170.662 48.2568 c 128,-1,12
 178.5 40.418 178.5 40.418 178.5 29.3447 c 128,-1,13
 178.5 18.2695 178.5 18.2695 170.662 10.4316 c 128,-1,14
 162.824 2.59277 162.824 2.59277 151.75 2.59473 c 0,15,16
 82.3438 3.08105 82.3438 3.08105 82.3438 -52 c 0,17,18
 82.3438 -102.875 82.3438 -102.875 153.531 -102.969 c 0,19,20
 164.018 -103.658 164.018 -103.658 171.259 -111.36 c 128,-1,0
 178.5 -119.062 178.5 -119.062 178.5 -129.655 c 128,-1,1
EndSplineSet
EndChar
StartChar: hungarumlaut
Encoding: 733 733 106
Width: 550
Flags: W
TeX: 0 0 0 0
Fore
484.223 634.046 m 128,-1,1
 490.734 625.085 490.734 625.085 489 614.138 c 128,-1,2
 487.266 603.191 487.266 603.191 478.305 596.682 c 2,3,-1
 292.664 465.428 l 2,4,5
 283.706 458.918 283.706 458.918 272.758 460.652 c 128,-1,6
 261.81 462.386 261.81 462.386 255.301 471.346 c 128,-1,7
 248.789 480.306 248.789 480.306 250.523 491.253 c 128,-1,8
 252.258 502.199 252.258 502.199 261.219 508.71 c 2,9,-1
 446.859 639.964 l 2,10,11
 455.817 646.474 455.817 646.474 466.766 644.739 c 128,-1,0
 477.714 643.006 477.714 643.006 484.223 634.046 c 128,-1,1
277.798 634.046 m 128,-1,13
 284.31 625.085 284.31 625.085 282.575 614.138 c 128,-1,14
 280.841 603.191 280.841 603.191 271.88 596.682 c 2,15,-1
 86.2393 465.428 l 2,16,17
 77.2812 458.918 77.2812 458.918 66.333 460.652 c 128,-1,18
 55.3848 462.386 55.3848 462.386 48.876 471.346 c 128,-1,19
 42.3643 480.306 42.3643 480.306 44.0986 491.253 c 128,-1,20
 45.833 502.199 45.833 502.199 54.7939 508.71 c 2,21,-1
 240.435 639.964 l 2,22,23
 249.393 646.474 249.393 646.474 260.341 644.739 c 128,-1,12
 271.289 643.006 271.289 643.006 277.798 634.046 c 128,-1,13
EndSplineSet
EndChar
StartChar: caron
Encoding: 711 711 107
Width: 403
Flags: W
TeX: 0 0 0 0
Fore
193.937 476.374 m 4,0,1
 193.571 476.361 193.571 476.361 192.656 476.374 c 4,2,3
 180.533 476.223 180.533 476.223 172.469 484.874 c 6,4,-1
 64.9062 600.187 l 6,5,6
 57.3516 608.285 57.3516 608.285 57.7354 619.366 c 132,-1,7
 58.1191 630.446 58.1191 630.446 66.2188 637.999 c 132,-1,8
 74.3154 645.553 74.3154 645.553 85.3975 645.169 c 132,-1,9
 96.4795 644.785 96.4795 644.785 104.031 636.687 c 6,10,-1
 192.5 541.812 l 5,11,-1
 281 636.687 l 6,12,13
 288.552 644.785 288.552 644.785 299.617 645.169 c 132,-1,14
 310.683 645.553 310.683 645.553 318.781 637.999 c 132,-1,15
 326.884 630.443 326.884 630.443 327.28 619.366 c 132,-1,16
 327.677 608.288 327.677 608.288 320.125 600.187 c 6,17,-1
 212.562 484.874 l 6,18,19
 204.998 476.761 204.998 476.761 193.937 476.374 c 4,0,1
EndSplineSet
EndChar
StartChar: cedilla
Encoding: 184 184 108
Width: 480
Flags: W
TeX: 0 0 0 0
Fore
139.281 32.1553 m 132,-1,1
 139.281 42.75 139.281 42.75 146.522 50.4521 c 132,-1,2
 153.764 58.1543 153.764 58.1543 164.25 58.8438 c 5,3,-1
 164.25 59.0938 l 5,4,5
 223.943 59.0938 223.943 59.0938 256.222 30.2412 c 132,-1,6
 288.5 1.38867 288.5 1.38867 288.5 -45.8447 c 4,7,8
 288.5 -93.4082 288.5 -93.4082 256.523 -123.501 c 132,-1,9
 224.547 -153.595 224.547 -153.595 166.031 -153.595 c 4,10,11
 154.957 -153.595 154.957 -153.595 147.119 -145.757 c 132,-1,12
 139.281 -137.918 139.281 -137.918 139.281 -126.845 c 132,-1,13
 139.281 -115.77 139.281 -115.77 147.119 -107.932 c 132,-1,14
 154.957 -100.093 154.957 -100.093 166.031 -100.095 c 4,15,16
 235.438 -100.581 235.438 -100.581 235.438 -45.5 c 4,17,18
 235.438 5.375 235.438 5.375 164.25 5.46875 c 4,19,20
 153.764 6.1582 153.764 6.1582 146.522 13.8604 c 132,-1,0
 139.281 21.5615 139.281 21.5615 139.281 32.1553 c 132,-1,1
EndSplineSet
EndChar
StartChar: dotlessi
Encoding: 305 305 147
Width: 204
Flags: W
TeX: 0 0 0 0
Fore
78.25 475.823 m 128,-1,1
 89.3242 475.823 89.3242 475.823 97.1621 467.985 c 128,-1,2
 105 460.147 105 460.147 105 449.073 c 2,3,-1
 105 26.75 l 2,4,5
 105 15.6758 105 15.6758 97.1621 7.83789 c 128,-1,6
 89.3242 0 89.3242 0 78.25 0 c 128,-1,7
 67.1758 0 67.1758 0 59.3379 7.83789 c 128,-1,8
 51.5 15.6758 51.5 15.6758 51.5 26.75 c 2,9,-1
 51.5 449.073 l 2,10,11
 51.5 460.147 51.5 460.147 59.3379 467.985 c 128,-1,0
 67.1758 475.823 67.1758 475.823 78.25 475.823 c 128,-1,1
EndSplineSet
EndChar
